**ABCDEFGHIJKLMNOPQRSTUVWXYZabcdefghijklmnopqrstuvwxyz**************************
**PARASOLID !"#$%&'()*+,-./:;<=>?@[\]^_`{|}~0123456789**************************
**PART1;
MC=AMD64;
MC_MODEL=Intel64 Family 6 Model 60 Stepping 3, GenuineIntel;
MC_ID=unknown;
OS=Windows_NT;
OS_RELEASE=unknown;
FRU=Parasolid Version 28.0, build 209,  1-25-2016;
APPL=SOLIDWORKS 2016-2016195;
SITE=;
USER=unknown;
FORMAT=text;
GUISE=transmit;
KEY=NUT(Nylon)_M6;
FILE=NUT(Nylon)_M6.x_t;
DATE=Thu Mar 09 12:36:45 2017;
**PART2;
SCH=SCH_2800209_28002;
USFLD_SIZE=0;
**PART3;
**END_OF_HEADER*****************************************************************
T51 : TRANSMIT FILE created by modeller version 280020923 SCH_2800209_28002_1300
6200 0 12 30 CCCCCCCCCCCCCDI5 owner1040 0 CCCCCCCCCA13 boundary_mesh1006 0 A16 i
ndex_map_offset0 0 1 dA9 index_map82 0 A17 node_id_index_map82 0 A20 schema_embe
dding_map82 0 A5 child12 0 A14 lowest_node_id0 0 1 dZ1 1311 0 2 0 0 0 0 1e3 1e-8
 0 3 0 1 0 1 1 4 5 6 7 8 9 10 0 0 0 0 0 0 0 70 11 CI9 list_type0 0 1 uI10 notran
smit0 0 1 lCCCDCCDI12 finger_index0 0 1 dI12 finger_block1012 0 CZ2 0 4 T1 0 0 2
 20 1 11 11 13 255 4 134 0 1 0 12 0 0 13 0 50 255 5 127 0 14 15 0 16 +-277460850
5937335e-34 .00577350269189626 -.0049 -.5 .866025403784438 0 -.866025403784438 -
.5 0 31 255 6 915 0 17 18 0 0 -0 0 -.00452449623089514 0 0 -1 -1 0 0 .0025 29 25
5 7 776 0 10 19 0 .005 0 0 19 8 CCCCCCCA5 owner12 0 Z8 40 0 1 13 0 20 V0 16 255
 9 554 0 ?21 0 22 23 22 24 1 18 255 10 773 0 25 0 26 7 ?1 17 255 25 0 27 28 29 1
0 30 31 0 32 -18 26 565 0 33 10 34 19 ?1 17 33 0 35 36 37 26 38 39 0 40 -18 34 4
71 0 41 26 42 43 ?1 29 19 567 0 26 43 7 -.005 .002886751345948125 -.000446581987
3852055 29 43 474 0 34 44 19 .005 0 -.0049 29 44 463 0 42 45 43 -.005 0 -.0049 1
8 42 461 0 46 34 47 44 ?1 29 45 437 0 47 48 44 .0025 -.004330127018922195 -.0049
 18 47 361 0 49 42 50 45 ?1 29 48 438 0 50 51 45 -.0025 -.00433012701892219 -.00
49 18 50 364 0 52 47 53 48 ?1 29 51 440 0 53 54 48 -.0025 .004330127018922195 -.
0049 18 53 358 0 55 50 56 51 ?1 29 54 441 0 56 57 51 .0025 .00433012701892219 -.
0049 18 56 356 0 58 53 59 54 ?1 29 57 443 0 59 60 54 .005 -.002886751345948135 -
.004453418012614795 18 59 360 0 61 56 62 57 ?1 29 60 444 0 62 63 57 -14745149545
80286e-32 -.00577350269189626 -.004453418012614795 18 62 362 0 64 59 65 60 ?1 29
 63 445 0 65 66 60 -.005 -.002886751345948135 -.004453418012614795 18 65 365 0 6
7 62 68 63 ?1 29 66 446 0 68 69 63 -.005 .002886751345948135 -.00445341801261479
5 18 68 363 0 70 65 71 66 ?1 29 69 447 0 71 72 66 1301042606982604e-33 .00577350
269189626 -.004453418012614795 18 71 355 0 73 68 74 69 ?1 29 72 448 0 74 75 69 .
005 .002886751345948135 -.004453418012614795 18 74 357 0 76 71 77 72 ?1 29 75 73
9 0 77 78 72 .0025 -.004330127018922195 0 18 77 664 0 79 74 80 75 ?1 29 78 740 0
 80 81 75 -.0025 -.00433012701892219 0 18 80 666 0 82 77 83 78 ?1 29 81 741 0 83
 84 78 -.005 0 0 18 83 668 0 36 80 85 81 ?1 29 84 742 0 85 86 81 -.0025 .0043301
27018922195 0 18 85 657 0 87 83 88 84 ?1 29 86 745 0 88 89 84 .005 -.00288675134
5948135 -.000446581987385208 18 88 663 0 90 85 91 86 ?1 29 89 746 0 91 92 86 -14
74514954580286e-32 -.00577350269189626 -.000446581987385208 18 91 665 0 93 88 94
 89 ?1 29 92 747 0 94 95 89 -.005 -.002886751345948135 -.000446581987385208 18 9
4 667 0 96 91 97 92 ?1 29 95 749 0 97 98 92 1301042606982604e-33 .00577350269189
626 -.000446581987385208 18 97 659 0 99 94 100 95 ?1 29 98 750 0 100 101 95 .005
 .002886751345948135 -.000446581987385208 18 100 661 0 28 97 102 98 ?1 29 101 11
25 0 102 0 98 .0025 .00433012701892219 1001543065824776e-33 18 102 1037 0 103 10
0 0 101 ?1 17 103 0 104 105 106 102 99 107 0 108 +15 255 104 315 0 106 109 0 17
 105 0 104 110 103 100 29 111 0 112 +17 106 0 104 103 113 97 114 115 0 0 +17 99
 0 116 87 108 97 103 107 0 117 -16 107 632 0 ?103 118 111 119 111 111 1 17 108 0
 116 99 87 102 21 9 0 29 -15 116 677 0 108 120 0 17 87 0 116 108 99 85 117 118 0
 37 -17 21 0 121 122 30 85 108 9 0 0 +17 29 0 27 25 28 102 105 111 0 30 -15 27 6
80 0 25 123 0 17 28 0 27 29 25 100 124 125 0 105 +16 111 634 0 ?105 107 125 119
 107 107 1 17 30 0 121 21 126 102 25 31 0 0 +15 121 1081 0 126 127 128 17 126 0
 121 30 129 10 130 24 0 0 +16 31 633 0 ?30 131 17 132 0 0 1 16 131 639 0 ?40 133
 31 134 133 133 1 16 17 925 0 ?135 31 136 6 0 0 1 31 132 737 0 31 137 134 0 +0 0
 0 0 0 1 1 0 0 .005 31 137 958 0 138 139 132 0 +0 0 -.0048746 0 0 1 1 0 0 .003 3
8 255 134 733 0 131 132 140 0 +15 141 142 143 144 38 140 732 0 145 134 146 0 +14
7 141 148 149 150 50 15 126 0 151 147 5 152 +-.005 .002886751345948125 -.0049 -1
 0 0 0 0 1 52 255 141 727 0 153 154 155 156 +0 0 0 0 0 -1 .005 .866025403784438
 .5 -1 0 0 40 255 4 142 0 1 4 .000855618833131371 .314227921893316 ??-.005 -.007
65608998744865 -.002392633526550805 -.005 -.002157277485824725 -.000257229471998
351 -.005 .00078560048579333 -354149807849857e-19 -.005 .00488829623733355 -.001
150386258177242 41 3 CI8 term_use0 0 1 cCZ1 143 L?-.005 -.00765608998744865 -.00
2392633526550805 41 1 144 L?-.005 .00488829623733355 -.001150386258177242 14 255
 153 718 157 ?158 159 160 4 141 +120 159 158 159 20 51 255 154 954 0 161 162 141
 0 -0 0 -.0250375057290932 0 0 1 .003 1 0 0 52 155 425 0 163 141 164 165 -0 0 -.
0049 0 0 1 .005 .866025403784438 .5 1 0 0 141 255 156 134 166 167 141 141 166 11
9 168 156 141 141 167 140 156 169 141 141 169 146 167 170 141 38 146 731 0 171 1
40 172 0 +173 141 174 175 176 141 170 172 169 168 141 38 172 730 0 177 146 178 0
 +179 141 180 181 182 141 168 178 170 166 141 38 178 729 0 39 172 119 0 +5 141 1
83 184 185 16 39 640 0 ?38 125 177 178 118 118 1 38 119 728 0 111 178 186 0 +187
 141 188 189 190 40 3 183 0 1 3 .000517280680965204 .304721333143139 ??-.0050002
 .00288663587589429 -.000446648656051832 -.002322289033384335 .0044327284933357
 -2430098117952695e-21 1999999999995595e-22 .0057736181619501 -.0004466486560518
345 41 1 184 L?-.0050002 .00288663587589429 -.000446648656051832 41 1 185 L?1999
999999995595e-22 .0057736181619501 -.0004466486560518345 31 186 436 0 191 119 19
2 0 +0 0 -.0049 0 0 1 1 0 0 .005 50 187 122 0 109 193 179 194 +.005 .00288675134
5948125 -.0049 .5 .866025403784438 0 -.866025403784438 .5 0 40 3 188 0 1 3 .0005
17280680965204 .3047213331431385 ??-200000000000292e-21 .0057736181619501 -.0004
466486560518345 .002677710966615665 .00422752554450869 -2430098117952315e-21 .00
50002 .00288663587589429 -.0004466486560518315 41 1 189 L?-200000000000292e-21 .
0057736181619501 -.0004466486560518345 41 1 190 L?.0050002 .00288663587589429 -.
0004466486560518315 14 109 618 195 ?196 14 104 4 187 +0 0 196 14 20 50 193 2 0 1
97 164 187 0 +-.01 -260208521396521e-32 -.0049 0 0 1 1 0 0 50 179 123 0 196 187
 173 198 +.005 .002886751345948125 -.0049 -1 0 0 0 0 1 141 194 199 200 200 187 3
8 199 426 0 201 202 203 0 +187 155 204 205 206 141 200 119 194 194 187 16 201 33
3 0 ?76 207 208 199 207 207 1 38 202 427 0 209 210 199 0 +5 155 211 212 213 30 2
55 203 128 0 115 199 214 0 +-2774608505937335e-34 .00577350269189626 -.0049 0 0
 1 40 3 204 0 1 3 .000517280680965204 .3047213331431385 ??-2000000000002775e-22
 .0057736181619501 -.004453351343948165 .002677710966615665 .00422752554450869 -
.00489756990188205 .0050002 .00288663587589429 -.00445335134394817 41 1 205 L?-2
000000000002775e-22 .0057736181619501 -.004453351343948165 41 1 206 L?.0050002 .
00288663587589429 -.00445335134394817 16 115 308 0 ?106 215 216 203 0 0 1 30 214
 129 0 216 203 217 0 +.005 .002886751345948125 -.0049 0 0 1 16 216 297 0 ?112 11
5 218 214 0 0 1 30 217 130 0 218 214 219 0 +.005 -.002886751345948135 -.0049 0 0
 1 16 218 286 0 ?220 216 221 217 0 0 1 30 219 131 0 221 217 222 0 +-250385766456
1935e-34 -.00577350269189627 -.0049 0 0 1 16 221 275 0 ?223 218 224 219 0 0 1 30
 222 132 0 224 219 225 0 +-.005 -.002886751345948135 -.0049 0 0 1 16 224 264 0 ?
226 221 227 222 0 0 1 30 225 133 0 227 222 228 0 +-.005 .002886751345948125 -.00
49 0 0 1 16 227 261 0 ?229 224 230 225 0 0 1 31 228 237 0 231 225 23 0 -0 0 -.00
49 0 0 1 1 0 0 .005 16 231 256 0 ?232 24 233 228 233 215 1 31 23 539 0 24 228 18
 0 +0 0 0 0 0 1 1 0 0 .005 16 24 537 0 ?126 234 231 23 9 234 1 31 18 909 0 136 2
3 6 0 -0 0 -.0049 0 0 1 1 0 0 .003 16 136 923 0 ?235 17 138 18 0 0 1 17 235 0 23
6 235 235 0 237 136 0 0 +16 138 920 0 ?238 136 239 137 0 0 1 17 238 0 240 238 23
8 0 241 138 0 0 +16 239 1023 0 ?242 138 243 139 0 0 1 17 242 0 244 242 242 0 245
 239 0 0 +16 243 1024 0 ?246 239 247 248 0 0 1 31 139 1113 0 239 248 137 0 +0 0
 .002066666666666665 0 0 1 1 0 0 .00357142857142857 31 248 1114 0 243 249 139 0
 +0 0 .0031 0 0 1 1 0 0 .00357142857142857 31 249 1115 0 247 250 248 0 +0 0 .003
1 0 0 1 1 0 0 .003966666666666665 16 247 1025 0 ?251 243 252 249 0 0 1 31 250 11
16 0 252 253 249 0 +0 0 .002066666666666665 0 0 1 1 0 0 .005 16 252 1026 0 ?254
 247 255 250 0 0 1 31 253 1119 0 255 0 250 0 +0 0 .002066666666666665 0 0 1 1 0
 0 .0025 16 255 1028 0 ?256 252 0 253 0 0 1 17 256 0 257 256 256 0 258 255 0 0 +
15 257 1090 0 256 12 259 17 258 0 260 258 258 0 256 255 0 0 -15 260 1065 0 258 2
61 244 14 261 1063 262 ?263 161 260 4 264 -0 0 263 161 20 15 244 1066 0 242 261
 0 81 255 1 262 1287 265 261 266 0 195 267 268 14 263 1067 267 ?269 261 270 4 27
1 -0 0 269 261 20 14 161 930 272 ?261 273 240 4 154 +0 0 261 273 20 50 264 1093
 0 261 271 162 0 +0 .0025 .002066666666666665 0 0 -1 -1 0 0 13 20 41 0 0 0 0 0 0
 8 12 14 12 916 274 ?14 0 257 4 164 -0 0 14 0 20 81 1 274 1290 265 12 275 0 272
 276 277 14 14 626 276 ?109 12 278 4 5 +0 0 109 12 20 51 164 189 0 12 155 193 0
 +0 0 -.0049 0 0 1 .0025 1 0 0 81 1 276 1291 265 14 279 0 274 280 281 15 278 323
 0 229 14 0 17 229 0 278 38 282 26 283 227 0 0 +17 38 0 278 117 229 85 33 39 0 2
1 +17 282 0 278 229 284 68 55 209 0 283 -17 283 0 285 286 40 68 229 227 0 0 -15
 285 271 0 226 151 0 17 286 0 285 287 283 42 70 288 0 0 -17 40 0 285 283 289 26
 36 131 0 229 +17 289 0 285 40 226 83 96 133 0 122 +17 36 0 35 37 33 83 40 131 0
 290 -15 35 692 0 36 158 0 17 37 0 35 33 36 85 122 22 0 38 -17 290 0 160 96 82 8
3 291 292 0 289 -15 160 720 0 290 153 0 17 96 0 160 82 290 94 289 133 0 293 -17
 82 0 160 290 96 80 293 145 0 294 -17 291 0 121 129 122 80 290 292 0 0 +16 292 5
46 0 ?291 22 234 23 234 22 1 16 22 550 0 ?122 9 292 23 292 9 1 16 234 542 0 ?129
 292 24 23 24 292 1 17 129 0 121 126 291 77 294 234 0 0 +17 294 0 295 93 79 80 1
29 234 0 296 -15 295 698 0 294 159 0 17 93 0 295 79 294 91 296 297 0 298 -17 79
 0 295 294 93 77 298 171 0 130 -17 296 0 299 293 223 80 93 297 0 291 +15 299 282
 0 223 300 0 17 293 0 299 301 296 94 82 145 0 226 +17 223 0 299 296 302 91 303 2
21 0 0 +16 297 644 0 ?296 171 145 140 145 145 1 16 171 643 0 ?298 304 297 146 30
4 304 1 16 145 655 0 ?293 297 133 140 297 297 1 16 133 656 0 ?289 145 131 134 13
1 131 1 17 298 0 305 303 306 91 79 171 0 223 +16 304 637 0 ?306 177 171 146 171
 171 1 17 306 0 305 298 220 77 90 304 0 129 +16 177 635 0 ?32 39 304 172 125 125
 1 17 32 0 307 130 90 10 308 177 0 124 +16 125 636 0 ?28 111 39 172 177 177 1 15
 307 686 0 32 309 0 17 130 0 307 90 32 77 126 24 0 306 -17 90 0 307 32 130 88 30
6 304 0 308 -17 308 0 310 311 124 88 32 177 0 220 -17 124 0 310 308 112 10 28 12
5 0 126 -15 310 606 0 308 196 0 17 112 0 310 124 312 100 110 216 0 0 +17 312 0 3
10 112 313 74 314 208 0 110 +17 110 0 104 315 105 74 112 216 0 0 -17 315 0 104 1
13 110 56 76 201 0 0 -17 113 0 104 106 315 71 58 207 0 114 -17 76 0 316 314 317
 74 315 201 0 312 +15 316 378 0 76 318 0 17 314 0 316 317 76 34 312 208 0 319 -1
7 317 0 316 76 314 56 319 191 0 320 +17 319 0 321 232 320 34 317 191 0 313 -16 1
91 346 0 ?317 288 118 186 0 0 1 17 320 0 321 319 322 56 323 215 0 315 +15 321 3
 0 319 197 0 17 322 0 321 320 46 53 324 325 0 284 +17 323 0 326 73 58 53 320 215
 0 322 -16 215 240 0 ?320 325 115 228 231 325 1 16 325 244 0 ?322 327 215 228 21
5 327 1 16 327 248 0 ?46 233 325 228 325 233 1 17 46 0 321 322 328 42 329 327 0
 324 +16 233 252 0 ?328 231 327 228 327 231 1 17 328 0 321 46 232 50 330 233 0 3
31 +17 232 0 321 328 319 47 41 231 0 332 +17 330 0 333 64 52 47 328 233 0 232 -1
7 331 0 299 302 301 50 67 334 0 0 -17 302 0 299 223 331 62 52 335 0 303 -17 301
 0 299 331 293 65 226 224 0 0 -17 67 0 336 337 329 65 331 334 0 287 +16 334 342
 0 ?67 335 338 339 335 335 1 16 335 341 0 ?52 340 334 339 334 334 1 16 338 344 0
 ?337 334 288 192 288 288 1 38 339 430 0 334 192 341 0 +147 155 342 343 344 38 1
92 431 0 288 186 339 0 +15 155 345 346 347 38 341 429 0 340 339 210 0 +173 155 3
48 349 350 50 147 125 0 300 173 15 351 +-.005 -.002886751345948135 -.0049 -.5 -.
866025403784438 0 .866025403784438 -.5 0 40 3 342 0 1 3 .000517280680965205 .304
7213331431385 ??1999999999997495e-22 -.00577361816195011 -.00445335134394816 -.0
0267771096661567 -.004227525544508695 -.00489756990188205 -.0050002 -.0028866358
75894295 -.004453351343948165 41 1 343 L?1999999999997495e-22 -.0057736181619501
1 -.00445335134394816 41 1 344 L?-.0050002 -.002886635875894295 -.00445335134394
8165 14 300 585 280 ?151 352 299 4 147 +0 0 151 352 20 50 173 124 0 352 179 147
 353 +-2503857664561935e-34 -.00577350269189627 -.0049 .5 -.866025403784438 0 .8
66025403784438 .5 0 141 351 339 354 354 147 141 354 140 351 351 147 14 352 596 3
55 ?300 196 305 4 173 +0 0 300 196 20 141 353 341 356 356 173 141 356 146 353 35
3 173 81 1 355 1293 265 352 357 0 280 358 359 14 196 607 358 ?352 109 310 4 179
 -0 0 352 109 20 15 305 293 0 220 352 0 17 220 0 305 306 360 88 311 218 0 0 +17
 360 0 305 220 332 59 49 361 0 311 -17 311 0 310 313 308 59 220 218 0 0 -17 313
 0 310 312 311 34 61 362 0 0 +17 61 0 363 49 41 59 313 362 0 360 -16 362 336 0 ?
313 209 361 210 208 208 1 16 209 328 0 ?55 208 362 202 230 230 1 16 361 338 0 ?4
9 362 340 341 340 340 1 38 210 428 0 362 341 202 0 +179 155 364 365 366 16 208 3
34 0 ?312 201 209 210 362 362 1 40 4 364 0 1 4 .000855618833131371 .314227921893
316 ??.005 -.00765608998744865 -.002507366473449195 .005 -.002157277485824725 -.
00464277052800165 .005 .000785600485793329 -.00486458501921502 .005 .00488829623
733355 -.00374961374182276 41 1 365 L?.005 -.00765608998744865 -.002507366473449
195 41 1 366 L?.005 .00488829623733355 -.00374961374182276 17 49 0 363 41 61 47
 360 361 0 330 +16 340 339 0 ?64 361 335 341 361 361 1 17 64 0 333 52 330 62 332
 340 0 302 +15 333 396 0 64 367 0 17 52 0 333 330 64 50 302 335 0 329 +17 332 0
 305 360 303 47 64 340 0 0 -17 303 0 305 332 298 62 223 221 0 0 -17 329 0 336 67
 337 50 46 327 0 328 -15 336 418 0 67 163 0 17 337 0 336 329 67 42 287 338 0 286
 +17 287 0 285 226 286 65 337 338 0 301 -17 226 0 285 289 287 94 301 224 0 0 +14
 163 416 368 ?367 369 336 4 155 -370 367 367 369 20 81 1 368 1295 265 163 371 0
 358 372 373 14 367 394 372 ?374 163 333 4 155 -163 369 374 163 20 14 369 388 37
5 ?163 370 376 4 155 -367 374 163 370 20 14 370 373 377 ?369 318 326 4 155 -318
 163 369 318 20 81 1 377 1298 265 370 378 0 375 379 380 14 318 376 379 ?370 197
 316 4 155 -374 370 370 197 20 15 326 375 0 73 370 0 17 73 0 326 58 323 71 284 2
30 0 113 +17 58 0 326 323 73 56 113 207 0 317 +17 284 0 278 282 114 53 73 230 0
 0 -16 230 329 0 ?73 227 207 202 209 209 1 16 207 332 0 ?58 230 201 199 201 201
 1 17 114 0 278 284 117 71 106 115 0 0 -17 117 0 278 114 38 97 87 118 0 106 +16
 118 631 0 ?117 191 107 178 39 39 1 81 1 379 1299 265 318 381 0 377 382 383 14 1
97 258 382 ?318 151 384 4 193 -0 0 318 151 20 14 374 382 385 ?309 367 363 4 155
 -369 318 309 367 20 81 1 385 1301 265 374 386 0 382 387 388 14 309 684 387 ?159
 374 307 4 141 +158 123 159 374 20 15 363 384 0 49 374 0 81 1 387 1302 265 309 3
89 0 385 390 391 14 159 696 390 ?153 309 295 4 141 +153 158 153 309 20 14 158 69
0 392 ?120 153 35 4 141 +159 309 120 153 20 14 123 678 393 ?273 120 27 4 141 +30
9 120 273 120 20 81 1 393 1305 265 123 394 0 392 395 396 14 273 926 395 ?161 123
 397 4 162 +0 0 161 123 20 14 120 675 398 ?123 158 116 4 141 +123 153 123 158 20
 81 1 398 1307 265 120 399 0 395 400 401 80 255 1 265 402 403 9000 1 1 1 1 1 1 1
 1 0 FFFFTFTFFFFFFF1 81 1 399 1219 404 120 0 398 405 394 406 81 1 395 1306 265 2
73 407 0 393 398 408 81 1 400 1308 265 151 409 0 398 410 411 82 255 1 401 197604
1580 14 151 574 400 ?197 300 285 4 15 +0 0 197 300 20 81 1 409 1207 404 151 0 40
0 412 413 414 81 1 410 1309 265 269 415 0 400 416 417 82 1 411 1978269804 14 269
 1071 410 ?418 263 419 4 420 -0 0 418 263 20 81 1 415 1225 404 269 0 410 421 422
 423 81 1 416 1310 265 418 422 0 410 424 425 82 1 417 2063663212 14 418 1075 416
 ?127 269 426 4 427 -0 0 127 269 20 81 1 422 1226 404 418 0 416 415 428 429 81 1
 424 1311 265 127 428 0 416 0 430 82 1 425 2063073388 14 127 1079 424 ?0 418 121
 4 431 -0 0 0 418 20 81 1 428 1227 404 127 0 424 422 0 432 82 1 430 2062483564 8
0 1 404 0 433 8001 0 0 0 0 3 5 0 0 0 FFFFTFTFFFFFFF2 83 255 3 432 .7764705882352
94 .756862745098039 .737254901960784 79 255 15 433 SDL/TYSA_COLOUR51 431 1097 0
 127 0 427 0 -0 0 .00948088822457563 0 0 1 .005 1 0 0 54 255 427 1096 0 418 431
 420 0 -0 0 .002066666666666665 0 0 1 .003966666666666665 .001033333333333332 1
 0 0 50 420 1095 0 269 427 271 0 +0 .00357142857142857 .0031 0 0 -1 -1 0 0 51 27
1 1094 0 263 420 264 0 +0 0 .00948088822457563 0 0 1 .00357142857142857 1 0 0 83
 3 429 .776470588235294 .756862745098039 .737254901960784 15 426 1077 0 434 418
 435 17 434 0 426 434 434 0 251 247 0 0 -15 435 1078 0 254 418 0 17 254 0 435 25
4 254 0 436 252 0 0 +17 436 0 128 436 436 0 254 252 0 0 -15 128 1082 0 436 127 0
 17 251 0 437 251 251 0 434 247 0 0 +15 437 1074 0 251 269 0 81 1 421 1224 404 2
63 0 267 266 415 438 83 3 423 .776470588235294 .756862745098039 .737254901960784
 81 1 267 1288 265 263 421 0 262 272 439 81 1 266 1223 404 261 0 262 440 421 441
 83 3 438 .776470588235294 .756862745098039 .737254901960784 81 1 440 1222 404 1
61 0 272 407 266 442 83 3 441 .776470588235294 .756862745098039 .737254901960784
 81 1 272 1289 265 161 440 0 267 274 443 81 1 407 1221 404 273 0 395 394 440 444
 83 3 442 .776470588235294 .756862745098039 .737254901960784 81 1 394 1220 404 1
23 0 393 399 407 445 83 3 444 .776470588235294 .756862745098039 .737254901960784
 83 3 445 .776470588235294 .756862745098039 .737254901960784 82 1 443 2034761834
 82 1 439 2064253036 15 419 1073 0 446 269 437 17 446 0 419 446 446 0 246 243 0
 0 -17 246 0 447 246 246 0 446 243 0 0 +15 447 1070 0 246 263 0 81 1 412 1206 40
4 300 0 280 357 409 448 81 1 413 1208 404 197 0 382 409 381 449 83 3 414 .776470
588235294 .756862745098039 .737254901960784 81 1 382 1300 265 197 413 0 379 385
 450 81 1 381 1209 404 318 0 379 413 378 451 83 3 449 .776470588235294 .75686274
5098039 .737254901960784 81 1 378 1210 404 370 0 377 381 452 453 83 3 451 .77647
0588235294 .756862745098039 .737254901960784 81 1 452 1211 404 369 0 375 378 371
 454 83 3 453 .776470588235294 .756862745098039 .737254901960784 81 1 375 1297 2
65 369 452 0 372 377 455 81 1 371 1212 404 163 0 368 452 456 457 83 3 454 .77647
0588235294 .756862745098039 .737254901960784 81 1 456 1213 404 367 0 372 371 386
 458 83 3 457 .776470588235294 .756862745098039 .737254901960784 81 1 372 1296 2
65 367 456 0 368 375 459 81 1 386 1214 404 374 0 385 456 389 460 83 3 458 .77647
0588235294 .756862745098039 .737254901960784 81 1 389 1215 404 309 0 387 386 461
 462 83 3 460 .776470588235294 .756862745098039 .737254901960784 81 1 461 1216 4
04 159 0 390 389 463 464 83 3 462 .776470588235294 .756862745098039 .73725490196
0784 81 1 390 1303 265 159 461 0 387 392 465 81 1 463 1217 404 153 0 157 461 405
 466 83 3 464 .776470588235294 .756862745098039 .737254901960784 81 1 157 1285 2
65 153 463 0 0 195 467 81 1 405 1218 404 158 0 392 463 399 468 83 3 466 .7764705
88235294 .756862745098039 .737254901960784 81 1 392 1304 265 158 405 0 390 393 4
69 83 3 468 .776470588235294 .756862745098039 .737254901960784 82 1 469 19738788
92 81 1 195 1286 265 109 470 0 157 262 471 82 1 467 1932197996 81 1 470 1203 404
 109 0 195 279 472 473 82 1 471 1982726252 81 1 279 1202 404 14 0 276 275 470 47
4 81 1 472 1204 404 196 0 358 470 357 475 83 3 473 .776470588235294 .75686274509
8039 .737254901960784 81 1 358 1294 265 196 472 0 355 368 476 81 1 357 1205 404
 352 0 355 472 412 477 83 3 475 .776470588235294 .756862745098039 .7372549019607
84 83 3 477 .776470588235294 .756862745098039 .737254901960784 82 1 476 19816121
40 81 1 275 1201 404 12 0 274 0 279 478 83 3 474 .776470588235294 .7568627450980
39 .737254901960784 83 3 478 .776470588235294 .756862745098039 .737254901960784
 82 1 465 1973026924 82 1 459 1946419304 82 1 455 1947271272 82 1 450 1941766250
 81 1 280 1292 265 300 412 0 276 355 479 83 3 448 .776470588235294 .756862745098
039 .737254901960784 82 1 479 1979383916 82 1 408 2035744874 83 3 406 .776470588
235294 .756862745098039 .737254901960784 79 14 403 SWEntUnchanged15 397 928 0 24
1 273 480 52 162 955 0 273 264 154 0 -0 0 -.0048746 0 0 -1 .003 .819152044288991
 .573576436351047 -1 0 0 17 241 0 397 241 241 0 238 138 0 0 -15 480 929 0 135 27
3 0 17 135 0 480 135 135 0 481 17 0 0 +17 481 0 259 481 481 0 135 17 0 0 -15 259
 914 0 481 12 0 82 1 396 1975582828 82 1 391 1974730860 82 1 388 1948123240 15 3
84 908 0 237 197 321 17 237 0 384 237 237 0 235 136 0 0 -82 1 383 1948975208 82
 1 380 1949433960 15 376 390 0 55 369 0 17 55 0 376 324 70 53 282 209 0 323 +17
 324 0 376 70 55 42 322 325 0 337 -17 70 0 376 55 324 68 286 288 0 282 +16 288 3
45 0 ?70 338 191 192 338 338 1 82 1 373 1923350632 17 41 0 363 61 49 34 232 231
 0 314 -82 1 359 1980498028 40 3 348 0 1 3 .000517280680965205 .304721333143139
 ??.0050002 -.0028866358758943 -.004453351343948165 .002322289033384335 -.004432
728493335705 -.00489756990188205 -1999999999996135e-22 -.00577361816195011 -.004
45335134394816 41 1 349 L?.0050002 -.0028866358758943 -.004453351343948165 41 1
 350 L?-1999999999996135e-22 -.00577361816195011 -.00445335134394816 40 4 345 0
 1 4 .000855618833131371 .314227921893316 ??-.005 -.00765608998744865 -.00250736
6473449195 -.005 -.002157277485824725 -.00464277052800165 -.005 .000785600485793
33 -.00486458501921502 -.005 .00488829623733355 -.00374961374182276 41 1 346 L?-
.005 -.00765608998744865 -.002507366473449195 41 1 347 L?-.005 .0048882962373335
5 -.00374961374182276 17 122 0 121 291 21 83 37 22 0 0 +82 1 281 1983512684 82 1
 277 2035286124 15 240 932 0 238 161 236 15 236 933 0 235 161 0 15 270 1069 0 24
5 263 447 17 245 0 270 245 245 0 242 239 0 0 -82 1 268 2064580716 40 3 211 0 1 3
 .000517280680965203 .304721333143139 ??-.0050002 .00288663587589429 -.004453351
34394817 -.002322289033384335 .0044327284933357 -.00489756990188205 199999999999
5645e-22 .0057736181619501 -.004453351343948165 41 1 212 L?-.0050002 .0028866358
7589429 -.00445335134394817 41 1 213 L?1999999999995645e-22 .0057736181619501 -.
004453351343948165 141 198 210 482 482 179 141 482 172 198 198 179 40 4 180 0 1
 4 .000855618833131371 .314227921893316 ??.005 -.00765608998744865 -.00239263352
6550805 .005 -.002157277485824725 -.000257229471998351 .005 .000785600485793329
 -354149807849857e-19 .005 .00488829623733355 -.001150386258177242 41 1 181 L?.0
05 -.00765608998744865 -.002392633526550805 41 1 182 L?.005 .00488829623733355 -
.001150386258177242 40 3 174 0 1 3 .000517280680965205 .304721333143139 ??.00500
02 -.0028866358758943 -.0004466486560518345 .002322289033384335 -.00443272849333
5705 -2430098117956195e-21 -199999999999607e-21 -.00577361816195011 -.0004466486
56051839 41 1 175 L?.0050002 -.0028866358758943 -.0004466486560518345 41 1 176 L
?-199999999999607e-21 -.00577361816195011 -.000446648656051839 141 165 192 483 4
84 155 141 483 199 485 165 155 141 484 339 165 486 155 141 486 341 484 487 155 1
41 487 210 486 485 155 141 485 202 487 483 155 141 152 192 488 488 15 141 488 13
4 152 152 15 40 3 148 0 1 3 .000517280680965205 .3047213331431385 ??199999999999
7495e-22 -.00577361816195011 -.000446648656051839 -.00267771096661567 -.00422752
5544508695 -243009811795557e-20 -.0050002 -.002886635875894295 -.000446648656051
834 41 1 149 L?1999999999997495e-22 -.00577361816195011 -.000446648656051839 41
 1 150 L?-.0050002 -.002886635875894295 -.000446648656051834 19 13 135 0 1 0 8 4
 S0 141 16 202 489 489 5 141 489 178 16 16 5 74 4 CI16 index_map_offset0 0 1 dCC
Z20 11 2 0 0 424 428 0 0 0 0 0 0 0 0 0 0 0 0 0 0 0 0 0 0 1 0 
