**ABCDEFGHIJKLMNOPQRSTUVWXYZabcdefghijklmnopqrstuvwxyz**************************
**PARASOLID !"#$%&'()*+,-./:;<=>?@[\]^_`{|}~0123456789**************************
**PART1;
MC=AMD64;
MC_MODEL=Intel64 Family 6 Model 60 Stepping 3, GenuineIntel;
MC_ID=unknown;
OS=Windows_NT;
OS_RELEASE=unknown;
FRU=Parasolid Version 28.0, build 209,  1-25-2016;
APPL=SOLIDWORKS 2016-2016195;
SITE=;
USER=unknown;
FORMAT=text;
GUISE=transmit;
KEY=NUT(Nylon)_M3;
FILE=NUT(Nylon)_M3.x_t;
DATE=Thu Mar 09 12:35:47 2017;
**PART2;
SCH=SCH_2800209_28002;
USFLD_SIZE=0;
**PART3;
**END_OF_HEADER*****************************************************************
T51 : TRANSMIT FILE created by modeller version 280020923 SCH_2800209_28002_1300
6200 0 12 30 CCCCCCCCCCCCCDI5 owner1040 0 CCCCCCCCCA13 boundary_mesh1006 0 A16 i
ndex_map_offset0 0 1 dA9 index_map82 0 A17 node_id_index_map82 0 A20 schema_embe
dding_map82 0 A5 child12 0 A14 lowest_node_id0 0 1 dZ1 1342 0 2 0 0 0 0 1e3 1e-8
 0 3 0 1 0 1 1 4 5 6 7 8 9 10 0 0 0 0 0 0 0 70 11 CI9 list_type0 0 1 uI10 notran
smit0 0 1 lCCCDCCDI12 finger_index0 0 1 dI12 finger_block1012 0 CZ2 0 4 T1 0 0 2
 20 1 11 11 13 255 4 134 0 1 0 12 0 0 13 0 50 255 5 127 0 14 15 0 16 +-277460850
5937325e-34 .003175426480542945 -.00215 -.5 .866025403784438 0 -.866025403784438
 -.5 0 31 255 6 915 0 17 18 0 0 -0 0 -.00194954811544757 0 0 -1 -1 0 0 .00125 29
 255 7 792 0 10 19 0 -.001375 .002381569860407205 0 19 8 CCCCCCCA5 owner12 0 Z8
 40 0 1 13 0 20 V0 16 255 9 558 0 ?21 0 22 23 22 24 1 18 255 10 789 0 25 0 26 7
 ?1 17 255 25 0 27 28 29 10 30 22 0 31 -18 26 565 0 32 10 33 19 ?1 17 32 0 34 35
 21 26 36 37 0 38 -18 33 487 0 39 26 40 41 ?1 29 19 567 0 26 41 7 -.00275 .00158
771324027147 -.0002456200930618625 29 41 490 0 33 42 19 -.001375 -.0023815698604
07205 -.00215 29 42 486 0 40 43 41 .001375 -.002381569860407205 -.00215 18 40 48
3 0 44 33 45 42 ?1 29 43 482 0 45 46 42 .00275 0 -.00215 18 45 479 0 47 40 48 43
 ?1 29 46 478 0 48 49 43 .001375 .002381569860407205 -.00215 18 48 475 0 50 45 5
1 46 ?1 29 49 474 0 51 52 46 -.001375 .002381569860407205 -.00215 18 51 471 0 53
 48 54 49 ?1 29 52 451 0 54 55 49 -.00275 0 -.00215 18 54 449 0 56 51 57 52 ?1 2
9 55 443 0 57 58 52 .00275 -.001587713240271475 -.001904379906938135 18 57 360 0
 59 54 60 55 ?1 29 58 444 0 60 61 55 -1127570259384924e-32 -.003175426480542945
 -.001904379906938135 18 60 362 0 62 57 63 58 ?1 29 61 445 0 63 64 58 -.00275 -.
001587713240271475 -.001904379906938135 18 63 365 0 65 60 66 61 ?1 29 64 446 0 6
6 67 61 -.00275 .001587713240271475 -.001904379906938135 18 66 363 0 68 63 69 64
 ?1 29 67 447 0 69 70 64 -650521303491303e-33 .003175426480542945 -.001904379906
938135 18 69 355 0 71 66 72 67 ?1 29 70 448 0 72 73 67 .00275 .00158771324027147
5 -.001904379906938135 18 72 357 0 74 69 75 70 ?1 29 73 745 0 75 76 70 .00275 -.
001587713240271475 -.000245620093061865 18 75 663 0 77 72 78 73 ?1 29 76 746 0 7
8 79 73 -1127570259384924e-32 -.003175426480542945 -.000245620093061865 18 78 66
5 0 80 75 81 76 ?1 29 79 747 0 81 82 76 -.00275 -.001587713240271475 -.000245620
093061865 18 81 667 0 83 78 84 79 ?1 29 82 749 0 84 85 79 -650521303491303e-33 .
003175426480542945 -.000245620093061865 18 84 659 0 86 81 87 82 ?1 29 85 750 0 8
7 88 82 .00275 .001587713240271475 -.000245620093061865 18 87 661 0 89 84 90 85
 ?1 29 88 1120 0 90 91 85 -.001375 -.002381569860407205 500771532912389e-33 18 9
0 1039 0 92 87 93 88 ?1 29 91 1121 0 93 94 88 .001375 -.002381569860407205 50077
1532912389e-33 18 93 1036 0 95 90 96 91 ?1 29 94 1122 0 96 97 91 .00275 0 500771
532912389e-33 18 96 1037 0 98 93 99 94 ?1 29 97 1123 0 99 100 94 .001375 .002381
569860407205 500771532912389e-33 18 99 1033 0 29 96 101 97 ?1 29 100 1125 0 101
 0 97 -.00275 0 500771532912389e-33 18 101 1030 0 28 99 0 100 ?1 17 28 0 27 92 2
5 101 21 9 0 35 -15 255 27 1081 0 92 102 103 17 92 0 27 95 28 90 104 24 0 105 -1
7 21 0 34 32 35 10 28 9 0 36 +17 35 0 34 21 32 101 38 106 0 104 -15 34 692 0 35
 107 0 17 38 0 108 109 110 26 35 106 0 111 +16 106 639 0 ?38 112 113 114 112 112
 1 17 104 0 115 83 116 101 92 24 0 110 +15 115 720 0 104 117 0 17 83 0 115 116 1
04 81 110 112 0 118 -17 116 0 115 104 83 90 118 119 0 120 -16 24 537 0 ?104 121
 122 23 9 121 1 17 110 0 108 38 123 101 83 112 0 0 +15 108 271 0 123 124 0 17 12
3 0 108 110 125 81 126 127 0 0 +16 112 656 0 ?110 119 106 114 106 106 1 16 119 6
55 0 ?118 128 112 129 128 128 1 38 255 114 733 0 106 130 129 0 +15 131 132 133 1
34 31 130 737 0 113 135 114 0 +0 0 0 0 0 1 1 0 0 .00275 38 129 732 0 119 114 136
 0 +137 131 138 139 140 50 15 126 0 124 137 5 141 +-.00275 .00158771324027147 -.
00215 -1 0 0 0 0 1 52 255 131 727 0 117 142 143 144 +0 0 0 0 0 -1 .00275 .866025
403784438 .5 -1 0 0 40 255 4 132 0 1 4 .000470590358222254 .3142279218933165 ??-
.00275 -.00421084949309676 -.001315948439602944 -.00275 -.0011865026172036 -.000
1414762095990934 -.00275 .0004320802671863295 -19478239431742e-18 -.00275 .00268
856293053345 -.000632712441997482 41 3 CI8 term_use0 0 1 cCZ1 133 L?-.00275 -.00
421084949309676 -.001315948439602944 41 1 134 L?-.00275 .00268856293053345 -.000
632712441997482 14 255 117 718 145 ?146 147 115 4 131 +148 146 146 147 20 51 255
 142 954 0 149 150 131 0 -0 0 -.0250375057290932 0 0 1 .0015 1 0 0 52 143 425 0
 147 131 151 152 -0 0 -.00215 0 0 1 .00275 .866025403784438 .5 1 0 0 141 255 144
 114 153 154 131 141 153 155 156 144 131 141 154 129 144 157 131 141 157 136 154
 158 131 38 136 731 0 159 129 160 0 +161 131 162 163 164 141 158 160 157 156 131
 38 160 730 0 165 136 166 0 +167 131 168 169 170 141 156 166 158 153 131 38 166
 729 0 37 160 155 0 +5 131 171 172 173 16 37 640 0 ?36 174 165 166 175 175 1 38
 155 728 0 176 166 177 0 +178 131 179 180 181 40 3 171 0 1 3 .000284508127296385
5 .304717475405435 ??-.0027502 .00158759777021763 -.0002456867633647605 -.001277
32905201044 .002437960208520985 -133463874723802e-20 1999999999996925e-22 .00317
5541950596785 -.000245686763364763 41 1 172 L?-.0027502 .00158759777021763 -.000
2456867633647605 41 1 173 L?1999999999996925e-22 .003175541950596785 -.000245686
763364763 16 176 634 0 ?182 183 174 155 183 183 1 31 177 436 0 184 155 185 0 +0
 0 -.00215 0 0 1 1 0 0 .00275 50 178 122 0 186 187 167 188 +.00275 .001587713240
27147 -.00215 .5 .866025403784438 0 -.866025403784438 .5 0 40 3 179 0 1 3 .00028
45081272963855 .304717475405435 ??-2000000000003965e-22 .003175541950596785 -.00
0245686763364763 .001472670947989562 .002325179512293425 -1334638747238082e-21 .
0027502 .00158759777021763 -.0002456867633647605 41 1 180 L?-2000000000003965e-2
2 .003175541950596785 -.000245686763364763 41 1 181 L?.0027502 .0015875977702176
3 -.0002456867633647605 14 186 618 189 ?190 14 191 4 178 +0 0 190 14 20 50 187 2
 0 192 151 178 0 +-433680868994202e-33 .003175426480542945 -.00215 0 0 -1 -1 0 0
 50 167 123 0 190 178 161 193 +.00275 .00158771324027147 -.00215 -1 0 0 0 0 1 14
1 188 194 195 195 178 38 194 426 0 196 197 198 0 +178 143 199 200 201 141 195 15
5 188 188 178 16 196 333 0 ?74 202 203 194 202 202 1 38 197 427 0 204 205 194 0
 +5 143 206 207 208 30 255 198 128 0 209 194 210 0 +-2774608505937325e-34 .00317
5426480542945 -.00215 0 0 1 40 3 199 0 1 3 .0002845081272963855 .304717475405435
 ??-2000000000003965e-22 .003175541950596785 -.001904313236635235 .0014726709479
89562 .002325179512293425 -.00214866536125276 .0027502 .00158759777021763 -.0019
0431323663524 41 1 200 L?-2000000000003965e-22 .003175541950596785 -.00190431323
6635235 41 1 201 L?.0027502 .00158759777021763 -.00190431323663524 16 209 308 0
 ?211 212 213 198 0 0 1 30 210 129 0 213 198 214 0 +.00275 .00158771324027147 -.
00215 0 0 1 16 213 297 0 ?215 209 216 210 0 0 1 30 214 130 0 216 210 217 0 +.002
75 -.001587713240271475 -.00215 0 0 1 16 216 286 0 ?218 213 219 214 0 0 1 30 217
 131 0 219 214 220 0 +1877893248421455e-34 -.00317542648054295 -.00215 0 0 1 16
 219 275 0 ?221 216 127 217 0 0 1 30 220 132 0 127 217 222 0 +-.00275 -.00158771
3240271475 -.00215 0 0 1 16 127 264 0 ?123 219 223 220 0 0 1 30 222 133 0 223 22
0 224 0 +-.00275 .00158771324027147 -.00215 0 0 1 16 223 261 0 ?111 127 225 222
 0 0 1 31 224 237 0 212 222 23 0 -0 0 -.00215 0 0 -1 -1 0 0 .00275 16 212 235 0
 ?226 227 209 224 122 227 1 31 23 539 0 24 224 18 0 +0 0 0 0 0 -1 -1 0 0 .00275
 31 18 909 0 228 23 6 0 -0 0 -.00215 0 0 -1 -1 0 0 .0015 16 228 924 0 ?229 17 23
0 18 0 0 1 17 229 0 231 229 229 0 232 228 0 0 +16 17 925 0 ?233 113 228 6 0 0 1
 16 230 920 0 ?234 228 235 135 0 0 1 17 234 0 236 234 234 0 237 230 0 0 +16 235
 1023 0 ?238 230 239 240 0 0 1 31 135 958 0 230 240 130 0 +0 0 -.0021246 0 0 1 1
 0 0 .0015 31 240 1113 0 235 241 135 0 +0 0 .00156666666666667 0 0 1 1 0 0 .0018
57142857142855 31 241 1114 0 239 242 240 0 +0 0 .00235 0 0 1 1 0 0 .001857142857
142855 16 239 1024 0 ?243 235 244 241 0 0 1 31 242 1115 0 244 245 241 0 +0 0 .00
235 0 0 1 1 0 0 .001966666666666665 16 244 1025 0 ?246 239 247 242 0 0 1 31 245
 1116 0 247 248 242 0 +0 0 .001566666666666665 0 0 1 1 0 0 .00275 16 247 1026 0
 ?249 244 250 245 0 0 1 31 248 1119 0 250 0 245 0 +0 0 .00156666666666667 0 0 1
 1 0 0 .00125 16 250 1028 0 ?251 247 0 248 0 0 1 17 251 0 252 251 251 0 253 250
 0 0 +15 252 1090 0 251 12 254 17 253 0 255 253 253 0 251 250 0 0 -15 255 1065 0
 253 256 257 14 256 1063 258 ?259 149 255 4 260 -0 0 259 149 20 15 257 1066 0 23
8 256 0 17 238 0 257 238 238 0 261 235 0 0 +17 261 0 262 261 261 0 238 235 0 0 -
15 262 1069 0 261 259 263 14 259 1067 264 ?265 256 262 4 266 -0 0 265 256 20 15
 263 1070 0 243 259 0 17 243 0 263 243 243 0 267 239 0 0 +17 267 0 268 267 267 0
 243 239 0 0 -15 268 1073 0 267 265 269 14 265 1071 270 ?271 259 268 4 272 -0 0
 271 259 20 15 269 1074 0 246 265 0 17 246 0 269 246 246 0 273 244 0 0 +17 273 0
 274 273 273 0 246 244 0 0 -15 274 1077 0 273 271 275 14 271 1075 276 ?102 265 2
74 4 277 -0 0 102 265 20 15 275 1078 0 249 271 0 17 249 0 275 249 249 0 278 247
 0 0 +17 278 0 103 278 278 0 249 247 0 0 -15 103 1082 0 278 102 0 14 102 1079 27
9 ?0 271 27 4 280 -0 0 0 271 20 81 255 1 279 1322 281 102 282 0 276 283 284 51 2
80 1097 0 102 0 277 0 -0 0 .00948088822457563 0 0 1 .00275 1 0 0 13 20 41 0 0 0
 0 0 0 8 12 14 12 916 283 ?14 0 252 4 151 -0 0 14 0 20 81 1 283 1323 281 12 285
 0 279 286 287 14 14 626 286 ?186 12 288 4 5 +0 0 186 12 20 51 151 189 0 12 143
 187 0 +0 0 -.00215 0 0 1 .00125 1 0 0 81 1 286 1324 281 14 289 0 283 290 291 15
 288 323 0 111 14 0 17 111 0 288 36 292 26 109 223 0 0 +17 36 0 288 293 111 10 3
2 37 0 0 +17 292 0 288 111 294 66 295 204 0 109 -17 109 0 108 296 38 66 111 223
 0 0 -17 296 0 108 125 109 54 68 297 0 0 -17 125 0 108 123 296 63 298 299 0 126
 -17 68 0 300 295 226 66 296 297 0 292 +16 297 345 0 ?68 299 184 185 299 299 1 1
6 299 344 0 ?298 301 297 185 297 297 1 16 184 346 0 ?302 297 175 177 0 0 1 38 18
5 431 0 297 177 303 0 +15 143 304 305 306 38 303 430 0 301 185 307 0 +137 143 30
8 309 310 40 4 304 0 1 4 .000470590358222254 .314227921893316 ??-.00275 -.004210
84949309676 -.000834051560397055 -.00275 -.0011865026172036 -.002008523790400905
 -.00275 .0004320802671863295 -.00213052176056826 -.00275 .00268856293053345 -.0
0151728755800252 41 1 305 L?-.00275 -.00421084949309676 -.000834051560397055 41
 1 306 L?-.00275 .00268856293053345 -.00151728755800252 16 301 342 0 ?65 311 299
 303 311 311 1 38 307 429 0 312 303 205 0 +161 143 313 314 315 50 137 125 0 316
 161 15 317 +-.00275 -.001587713240271475 -.00215 -.5 -.866025403784438 0 .86602
5403784438 -.5 0 40 3 308 0 1 3 .000284508127296386 .304717475405435 ??200000000
000188e-21 -.00317554195059679 -.001904313236635235 -.001472670947989566 -.00232
517951229343 -.00214866536125276 -.0027502 -.00158759777021764 -.001904313236635
235 41 1 309 L?200000000000188e-21 -.00317554195059679 -.001904313236635235 41 1
 310 L?-.0027502 -.00158759777021764 -.001904313236635235 14 316 585 290 ?124 31
8 319 4 137 +0 0 124 318 20 50 161 124 0 318 167 137 320 +1877893248421455e-34 -
.00317542648054295 -.00215 .5 -.866025403784438 0 .866025403784438 .5 0 141 317
 303 321 321 137 141 321 129 317 317 137 14 318 596 322 ?316 190 323 4 161 +0 0
 316 190 20 141 320 307 324 324 161 141 324 136 320 320 161 81 1 322 1326 281 31
8 325 0 290 326 327 14 190 607 326 ?318 186 328 4 167 -0 0 318 186 20 15 323 293
 0 218 318 0 17 218 0 323 329 330 75 331 216 0 0 +17 329 0 323 332 218 93 77 333
 0 0 +17 330 0 323 218 334 57 44 335 0 331 -17 331 0 328 336 337 57 218 216 0 0
 -15 328 606 0 337 190 0 17 336 0 328 338 331 45 59 339 0 0 +17 337 0 328 331 34
0 75 341 165 0 218 -17 340 0 328 337 215 96 89 174 0 0 -17 341 0 342 343 77 96 3
37 165 0 344 +16 165 635 0 ?341 37 333 160 174 174 1 16 333 637 0 ?329 165 159 1
36 159 159 1 16 174 636 0 ?89 176 37 160 165 165 1 17 89 0 345 346 344 87 340 17
4 0 182 +15 345 680 0 344 347 0 17 346 0 345 344 89 99 182 176 0 30 -17 344 0 34
5 89 346 96 29 113 0 340 -17 182 0 191 348 349 87 346 176 0 215 +15 191 315 0 21
1 186 0 17 348 0 191 350 182 72 215 213 0 0 -17 349 0 191 182 211 99 86 183 0 0
 +17 215 0 328 340 338 87 348 213 0 0 +17 338 0 328 215 336 72 47 203 0 348 +17
 47 0 351 302 74 45 338 203 0 352 -16 203 334 0 ?338 196 204 205 339 339 1 16 20
4 328 0 ?295 203 339 197 225 225 1 38 205 428 0 339 307 197 0 +167 143 353 354 3
55 16 339 336 0 ?336 204 335 205 203 203 1 16 335 338 0 ?44 339 312 307 312 312
 1 17 44 0 356 352 59 40 330 335 0 357 +16 312 339 0 ?62 335 311 307 335 335 1 1
7 62 0 358 39 357 60 334 312 0 359 +16 311 341 0 ?39 312 301 303 301 301 1 17 39
 0 358 357 62 33 359 311 0 360 +15 358 396 0 62 361 0 17 357 0 358 62 39 40 362
 363 0 364 +17 359 0 319 221 365 60 39 311 0 366 -17 360 0 367 65 298 33 56 122
 0 362 +15 367 418 0 65 147 0 17 65 0 367 298 360 63 365 301 0 125 +17 298 0 367
 360 65 54 125 299 0 296 +17 56 0 368 369 362 54 360 122 0 226 -16 122 256 0 ?36
0 24 363 224 363 212 1 17 362 0 368 56 364 33 357 363 0 365 -15 368 257 0 56 192
 0 17 364 0 368 362 370 40 352 371 0 334 -16 363 252 0 ?357 122 371 224 371 122
 1 17 365 0 319 359 126 33 65 301 0 0 -15 319 282 0 221 316 0 17 126 0 319 365 1
18 63 123 127 0 0 -17 118 0 319 126 120 81 116 119 0 123 +17 120 0 319 118 221 9
0 80 128 0 0 +17 221 0 319 120 359 78 366 219 0 0 +17 80 0 372 373 105 78 120 12
8 0 332 -16 128 644 0 ?120 159 119 129 119 119 1 16 159 643 0 ?332 333 128 136 3
33 333 1 17 332 0 323 366 329 78 373 159 0 221 +17 366 0 323 334 332 60 221 219
 0 0 -17 373 0 372 105 80 93 332 159 0 343 -15 372 698 0 105 146 0 17 105 0 372
 80 373 90 95 121 0 116 +17 343 0 342 77 341 93 98 374 0 329 +15 342 686 0 341 3
75 0 17 77 0 342 341 343 75 329 333 0 337 -17 98 0 27 29 95 96 343 374 0 341 -16
 374 546 0 ?343 22 121 23 121 22 1 16 22 554 0 ?30 9 374 23 374 9 1 16 121 542 0
 ?105 374 24 23 24 374 1 17 30 0 376 86 31 99 25 22 0 349 +15 376 677 0 30 148 0
 17 86 0 376 31 30 84 349 183 0 293 -17 31 0 376 30 86 10 293 175 0 21 -17 293 0
 288 377 36 84 31 175 0 211 +16 175 631 0 ?293 184 183 166 37 37 1 16 183 632 0
 ?349 175 176 155 176 176 1 17 377 0 288 294 293 69 211 209 0 0 -17 211 0 191 34
9 378 84 377 209 0 0 +17 378 0 191 211 350 69 50 202 0 377 -17 350 0 191 378 348
 48 74 196 0 0 -17 50 0 379 53 71 48 378 202 0 302 +16 202 332 0 ?50 225 196 194
 196 196 1 16 225 329 0 ?71 223 202 197 204 204 1 17 71 0 379 50 53 69 294 225 0
 378 +15 379 375 0 71 380 0 17 53 0 379 71 50 51 381 227 0 295 +17 294 0 288 292
 377 51 71 225 0 0 -17 381 0 368 370 369 48 53 227 0 350 -16 227 240 0 ?53 371 2
12 224 212 371 1 17 295 0 300 226 68 51 292 204 0 369 +15 300 390 0 295 382 0 17
 226 0 300 68 295 54 369 212 0 298 +17 369 0 368 381 56 51 226 212 0 294 -14 382
 388 383 ?380 192 300 4 143 -361 384 380 192 20 81 1 383 1328 281 382 385 0 326
 386 387 14 380 373 386 ?388 382 379 4 143 -388 147 388 382 20 14 192 258 389 ?3
82 124 231 4 187 +0 0 382 124 20 14 361 394 390 ?147 384 358 4 143 -147 382 147
 384 20 14 384 382 391 ?361 388 356 4 143 -382 388 361 388 20 81 1 391 1332 281
 384 392 0 390 393 394 14 388 376 393 ?384 380 351 4 143 -384 380 384 380 20 15
 356 384 0 44 384 0 81 1 393 1333 281 388 395 0 391 396 397 15 351 378 0 74 388
 0 17 74 0 351 47 302 72 350 196 0 338 +17 302 0 351 74 47 48 370 184 0 381 +17
 370 0 368 364 381 45 302 184 0 336 -80 255 1 281 398 399 9000 1 1 1 1 1 1 1 1 0
 FFFFTFTFFFFFFF1 81 1 395 1242 400 388 0 393 401 392 402 81 1 396 1334 281 124 4
03 0 393 404 405 82 255 1 397 -1285554072 14 124 574 396 ?192 316 108 4 15 +0 0
 192 316 20 81 1 403 1238 400 124 0 396 406 407 408 81 1 404 1335 281 409 410 0
 396 411 412 82 1 405 -1256259476 14 409 926 404 ?149 107 413 4 150 +0 0 149 107
 20 81 1 410 1252 400 409 0 404 414 415 416 81 1 411 1336 281 149 415 0 404 417
 418 82 1 412 -1198784406 14 149 942 411 ?256 409 419 4 142 +0 0 256 409 20 81 1
 415 1253 400 149 0 411 410 420 421 81 1 417 1337 281 107 414 0 411 422 423 82 1
 418 -1205993366 14 107 690 417 ?409 148 34 4 131 +146 375 409 148 20 81 1 414 1
251 400 107 0 417 424 410 425 81 1 422 1338 281 148 424 0 417 426 427 82 1 423 -
1260650388 14 148 675 422 ?107 347 376 4 131 +347 117 107 347 20 81 1 424 1250 4
00 148 0 422 428 414 429 81 1 426 1339 281 347 428 0 422 430 431 82 1 427 -12584
87700 14 347 678 426 ?148 375 345 4 131 +375 148 148 375 20 81 1 428 1249 400 34
7 0 426 432 424 433 81 1 430 1340 281 375 432 0 426 434 435 82 1 431 -1258946452
 14 375 684 430 ?347 146 342 4 131 +107 347 347 146 20 81 1 432 1248 400 375 0 4
30 436 428 437 81 1 434 1341 281 146 436 0 430 438 439 82 1 435 -1259798420 14 1
46 696 434 ?375 117 372 4 131 +117 107 375 117 20 81 1 436 1247 400 146 0 434 44
0 432 441 81 1 438 1342 281 147 442 0 434 0 443 82 1 439 -1261502356 14 147 416
 438 ?117 361 367 4 143 -380 361 117 361 20 81 1 442 1245 400 147 0 438 444 440
 445 82 1 443 -1311178648 80 1 400 0 446 8001 0 0 0 0 3 5 0 0 0 FFFFTFTFFFFFFF2
 81 1 444 1244 400 361 0 390 392 442 447 81 1 440 1246 400 117 0 145 442 436 448
 83 255 3 445 .776470588235294 .756862745098039 .737254901960784 81 1 145 1316 2
81 117 440 0 0 189 449 83 3 448 .776470588235294 .756862745098039 .7372549019607
84 81 1 189 1317 281 186 450 0 145 258 451 82 1 449 -1302331284 81 1 450 1234 40
0 186 0 189 289 452 453 81 1 258 1318 281 256 420 0 189 264 454 82 1 451 -125180
3028 81 1 420 1254 400 256 0 258 415 455 456 81 1 264 1319 281 259 455 0 258 270
 457 82 1 454 -1169948564 81 1 455 1255 400 259 0 264 420 458 459 81 1 270 1320
 281 265 458 0 264 276 460 82 1 457 -1170276244 81 1 458 1256 400 265 0 270 455
 461 462 81 1 276 1321 281 271 461 0 270 279 463 82 1 460 -1170866068 81 1 461 1
257 400 271 0 276 458 282 464 82 1 463 -1171455892 81 1 282 1258 400 102 0 279 4
61 0 465 83 3 464 .776470588235294 .756862745098039 .737254901960784 83 3 465 .7
76470588235294 .756862745098039 .737254901960784 83 3 462 .776470588235294 .7568
62745098039 .737254901960784 83 3 459 .776470588235294 .756862745098039 .7372549
01960784 83 3 456 .776470588235294 .756862745098039 .737254901960784 81 1 289 12
33 400 14 0 286 285 450 466 81 1 452 1235 400 190 0 326 450 325 467 83 3 453 .77
6470588235294 .756862745098039 .737254901960784 81 1 326 1327 281 190 452 0 322
 383 468 81 1 325 1236 400 318 0 322 452 406 469 83 3 467 .776470588235294 .7568
62745098039 .737254901960784 81 1 406 1237 400 316 0 290 325 403 470 83 3 469 .7
76470588235294 .756862745098039 .737254901960784 81 1 290 1325 281 316 406 0 286
 322 471 83 3 470 .776470588235294 .756862745098039 .737254901960784 82 1 471 -1
255145364 82 1 468 -1252917140 81 1 285 1232 400 12 0 283 0 289 472 83 3 466 .77
6470588235294 .756862745098039 .737254901960784 83 3 472 .776470588235294 .75686
2745098039 .737254901960784 81 1 390 1331 281 361 444 0 389 391 473 81 1 392 124
3 400 384 0 391 395 444 474 83 3 447 .776470588235294 .756862745098039 .73725490
1960784 83 3 474 .776470588235294 .756862745098039 .737254901960784 81 1 389 133
0 281 192 407 0 386 390 475 82 1 473 -1288109976 81 1 407 1239 400 192 0 389 403
 385 476 81 1 386 1329 281 380 401 0 383 389 477 82 1 475 -1292763030 81 1 401 1
241 400 380 0 386 385 395 478 82 1 477 -1285095320 81 1 385 1240 400 382 0 383 4
07 401 479 83 3 478 .776470588235294 .756862745098039 .737254901960784 83 3 479
 .776470588235294 .756862745098039 .737254901960784 83 3 476 .776470588235294 .7
56862745098039 .737254901960784 79 255 15 446 SDL/TYSA_COLOUR83 3 441 .776470588
235294 .756862745098039 .737254901960784 83 3 437 .776470588235294 .756862745098
039 .737254901960784 83 3 433 .776470588235294 .756862745098039 .737254901960784
 83 3 429 .776470588235294 .756862745098039 .737254901960784 83 3 425 .776470588
235294 .756862745098039 .737254901960784 83 3 421 .776470588235294 .756862745098
039 .737254901960784 15 419 944 0 232 149 236 17 232 0 419 232 232 0 229 228 0 0
 -15 236 945 0 234 149 0 83 3 416 .776470588235294 .756862745098039 .73725490196
0784 15 413 928 0 237 409 480 52 150 955 0 409 260 142 0 -0 0 -.0021246 0 0 -1 .
0015 .819152044288989 .57357643635105 -1 0 0 50 260 1093 0 256 266 150 0 +0 .001
25 .001566666666666665 0 0 -1 -1 0 0 51 266 1094 0 259 272 260 0 +0 0 .009480888
22457563 0 0 1 .001857142857142855 1 0 0 50 272 1095 0 265 277 266 0 +0 .0018571
42857142855 .00235 0 0 -1 -1 0 0 54 255 277 1096 0 271 280 272 0 -0 0 .001566666
666666665 0 0 1 .001966666666666665 .000783333333333333 1 0 0 17 237 0 413 237 2
37 0 234 230 0 0 -15 480 929 0 233 409 0 17 233 0 480 233 233 0 481 17 0 0 +17 4
81 0 254 481 481 0 233 17 0 0 -15 254 914 0 481 12 0 83 3 408 .776470588235294 .
756862745098039 .737254901960784 83 3 402 .776470588235294 .756862745098039 .737
254901960784 79 14 399 SWEntUnchanged82 1 394 -1286406040 15 231 907 0 229 192 3
68 82 1 387 -1287258008 16 371 248 0 ?352 363 227 224 227 363 1 17 352 0 356 59
 44 45 364 371 0 370 +17 59 0 356 44 352 57 336 339 0 330 -17 29 0 27 25 98 99 3
44 113 0 346 +17 95 0 27 98 92 93 105 121 0 373 -16 113 633 0 ?29 106 17 130 0 0
 1 17 334 0 323 330 366 40 62 312 0 0 -40 4 353 0 1 4 .000470590358222254 .31422
7921893316 ??.00275 -.00421084949309676 -.000834051560397055 .00275 -.0011865026
172036 -.002008523790400905 .00275 .0004320802671863305 -.00213052176056826 .002
75 .00268856293053345 -.001517287558002515 41 1 354 L?.00275 -.00421084949309676
 -.000834051560397055 41 1 355 L?.00275 .00268856293053345 -.001517287558002515
 82 1 327 -1254031252 40 3 313 0 1 3 .0002845081272963855 .3047174754054355 ??.0
027502 -.001587597770217635 -.001904313236635235 .001277329052010436 -.002437960
208520995 -.00214866536125276 -200000000000042e-21 -.00317554195059679 -.0019043
13236635235 41 1 314 L?.0027502 -.001587597770217635 -.001904313236635235 41 1 3
15 L?-200000000000042e-21 -.00317554195059679 -.001904313236635235 82 1 291 -125
1016596 82 1 287 -1199243156 82 1 284 -1172045716 40 3 206 0 1 3 .00028450812729
63855 .304717475405435 ??-.0027502 .00158759777021763 -.00190431323663524 -.0012
7732905201044 .002437960208520985 -.00214866536125276 199999999999698e-21 .00317
5541950596785 -.001904313236635235 41 1 207 L?-.0027502 .00158759777021763 -.001
90431323663524 41 1 208 L?199999999999698e-21 .003175541950596785 -.001904313236
635235 141 193 205 482 482 167 141 482 160 193 193 167 40 4 168 0 1 4 .000470590
358222254 .314227921893316 ??.00275 -.00421084949309676 -.001315948439602944 .00
275 -.0011865026172036 -.0001414762095990934 .00275 .0004320802671863305 -194782
39431742e-18 .00275 .00268856293053345 -.000632712441997483 41 1 169 L?.00275 -.
00421084949309676 -.001315948439602944 41 1 170 L?.00275 .00268856293053345 -.00
0632712441997483 40 3 162 0 1 3 .000284508127296386 .3047174754054355 ??.0027502
 -.001587597770217635 -.0002456867633647625 .001277329052010436 -.00243796020852
0995 -133463874724159e-20 -200000000000043e-21 -.00317554195059679 -.00024568676
3364767 41 1 163 L?.0027502 -.001587597770217635 -.0002456867633647625 41 1 164
 L?-200000000000043e-21 -.00317554195059679 -.000245686763364767 141 152 185 483
 484 143 141 483 194 485 152 143 141 484 303 152 486 143 141 486 307 484 487 143
 141 487 205 486 485 143 141 485 197 487 483 143 141 141 185 488 488 15 141 488
 114 141 141 15 40 3 138 0 1 3 .0002845081272963865 .304717475405435 ??200000000
000188e-21 -.00317554195059679 -.0002456867633647665 -.001472670947989566 -.0023
2517951229343 -1334638747241524e-21 -.0027502 -.00158759777021764 -.000245686763
364763 41 1 139 L?200000000000188e-21 -.00317554195059679 -.0002456867633647665
 41 1 140 L?-.0027502 -.00158759777021764 -.000245686763364763 19 13 135 0 1 0 8
 4 S0 141 16 197 489 489 5 141 489 166 16 16 5 74 4 CI16 index_map_offset0 0 1 d
CCZ20 11 2 0 0 438 282 0 0 0 0 0 0 0 0 0 0 0 0 0 0 0 0 0 0 1 0 
