**ABCDEFGHIJKLMNOPQRSTUVWXYZabcdefghijklmnopqrstuvwxyz**************************
**PARASOLID !"#$%&'()*+,-./:;<=>?@[\]^_`{|}~0123456789**************************
**PART1;
MC=AMD64;
MC_MODEL=Intel64 Family 6 Model 60 Stepping 3, GenuineIntel;
MC_ID=unknown;
OS=Windows_NT;
OS_RELEASE=unknown;
FRU=Parasolid Version 28.0, build 209,  1-25-2016;
APPL=SOLIDWORKS 2016-2016195;
SITE=;
USER=unknown;
FORMAT=text;
GUISE=transmit;
KEY=NUT_M3;
FILE=NUT_M3.x_t;
DATE=Thu Mar 09 12:32:55 2017;
**PART2;
SCH=SCH_2800209_28002;
USFLD_SIZE=0;
**PART3;
**END_OF_HEADER*****************************************************************
T51 : TRANSMIT FILE created by modeller version 280020923 SCH_2800209_28002_1300
6200 0 12 30 CCCCCCCCCCCCCDI5 owner1040 0 CCCCCCCCCA13 boundary_mesh1006 0 A16 i
ndex_map_offset0 0 1 dA9 index_map82 0 A17 node_id_index_map82 0 A20 schema_embe
dding_map82 0 A5 child12 0 A14 lowest_node_id0 0 1 dZ1 1098 0 2 0 0 0 0 1e3 1e-8
 0 3 0 1 0 1 1 4 5 6 7 8 9 10 0 0 0 0 0 0 0 70 11 CI9 list_type0 0 1 uI10 notran
smit0 0 1 lCCCDCCDI12 finger_index0 0 1 dI12 finger_block1012 0 CZ2 0 4 T1 0 0 2
 20 1 11 11 13 255 4 134 0 1 0 12 0 0 13 0 50 255 5 127 0 14 15 0 16 +4332341089
154325e-34 .003175426480542945 -.0024 -.5 .866025403784438 0 -.866025403784439 -
.5 0 31 255 6 916 0 17 18 0 0 -0 0 -.00219954811544757 0 0 -1 -1 0 0 .00125 29 2
55 7 793 0 10 19 0 -.001375 .002381569860407205 0 19 8 CCCCCCCA5 owner12 0 Z8 40
 0 1 13 0 20 V0 16 255 9 559 0 ?21 0 22 23 22 24 1 18 255 10 790 0 25 0 26 7 ?1
 17 255 25 0 27 28 29 10 30 31 0 21 -18 26 786 0 32 10 33 19 ?1 17 32 0 34 35 36
 26 37 38 0 28 -18 33 782 0 39 26 40 41 ?1 29 19 789 0 26 41 7 .001375 .00238156
9860407205 0 29 41 785 0 33 42 19 .00275 0 0 29 42 781 0 40 43 41 .001375 -.0023
81569860407205 0 18 40 778 0 44 33 45 42 ?1 29 43 777 0 45 46 42 -.001375 -.0023
81569860407205 0 18 45 774 0 47 40 48 43 ?1 29 46 568 0 48 49 43 -.00275 .001587
71324027147 -.000245620093061863 18 48 566 0 50 45 51 46 ?1 29 49 491 0 51 52 46
 -.001375 -.002381569860407205 -.0024 18 51 488 0 53 48 54 49 ?1 29 52 487 0 54
 55 49 .001375 -.002381569860407205 -.0024 18 54 484 0 56 51 57 52 ?1 29 55 483
 0 57 58 52 .00275 0 -.0024 18 57 480 0 59 54 60 55 ?1 29 58 479 0 60 61 55 .001
375 .002381569860407205 -.0024 18 60 476 0 62 57 63 58 ?1 29 61 475 0 63 64 58 -
.001375 .002381569860407205 -.0024 18 63 472 0 65 60 66 61 ?1 29 64 452 0 66 67
 61 -.00275 0 -.0024 18 66 450 0 68 63 69 64 ?1 29 67 444 0 69 70 64 .00275 -.00
1587713240271475 -.002154379906938135 18 69 361 0 71 66 72 67 ?1 29 70 445 0 72
 73 67 -3469446951953615e-33 -.003175426480542945 -.002154379906938135 18 72 363
 0 74 69 75 70 ?1 29 73 446 0 75 76 70 -.00275 -.001587713240271475 -.0021543799
06938135 18 75 366 0 77 72 78 73 ?1 29 76 447 0 78 79 73 -.00275 .00158771324027
1475 -.002154379906938135 18 78 364 0 80 75 81 76 ?1 29 79 448 0 81 82 76 650521
303491303e-33 .003175426480542945 -.002154379906938135 18 81 356 0 83 78 84 79 ?
1 29 82 449 0 84 85 79 .00275 .001587713240271475 -.002154379906938135 18 84 358
 0 86 81 87 82 ?1 29 85 742 0 87 88 82 -.00275 0 0 18 87 669 0 89 84 90 85 ?1 29
 88 746 0 90 91 85 .00275 -.001587713240271475 -.000245620093061864 18 90 664 0
 92 87 93 88 ?1 29 91 747 0 93 94 88 -3469446951953615e-33 -.003175426480542945
 -.000245620093061864 18 93 666 0 95 90 96 91 ?1 29 94 748 0 96 97 91 -.00275 -.
001587713240271475 -.000245620093061864 18 96 668 0 98 93 99 94 ?1 29 97 750 0 9
9 100 94 650521303491303e-33 .003175426480542945 -.000245620093061864 18 99 660
 0 29 96 101 97 ?1 29 100 751 0 101 0 97 .00275 .001587713240271475 -.0002456200
93061864 18 101 662 0 36 99 0 100 ?1 17 36 0 34 32 35 101 102 103 0 37 +15 255 3
4 681 0 35 104 0 17 35 0 34 36 32 33 105 106 0 107 -17 102 0 108 109 110 33 36 1
03 0 0 -16 103 637 0 ?36 38 111 112 113 113 1 17 37 0 114 115 116 101 32 38 0 11
0 +15 114 316 0 117 118 0 17 115 0 114 119 37 84 110 120 0 0 -17 116 0 114 37 11
7 26 29 121 0 0 +16 38 635 0 ?37 121 103 122 121 121 1 17 110 0 108 102 123 101
 115 120 0 0 +15 108 607 0 109 124 0 17 123 0 108 110 125 84 59 126 0 115 +16 12
0 298 0 ?110 127 128 129 0 0 1 16 127 309 0 ?117 130 120 131 0 0 1 16 128 287 0
 ?132 120 133 134 0 0 1 30 255 129 129 0 120 131 134 0 +.00275 .0015877132402714
7 -.0024 0 0 1 30 131 128 0 127 135 129 0 +4332341089154325e-34 .003175426480542
945 -.0024 0 0 1 30 134 130 0 128 129 136 0 +.00275 -.001587713240271475 -.0024
 0 0 1 30 136 131 0 133 134 137 0 +-625964416140484e-33 -.003175426480542945 -.0
024 0 0 1 16 133 276 0 ?138 128 139 136 0 0 1 30 137 132 0 139 136 140 0 +-.0027
5 -.00158771324027147 -.0024 0 0 1 16 139 265 0 ?141 133 142 137 0 0 1 30 140 13
3 0 142 137 143 0 +-.00275 .00158771324027147 -.0024 0 0 1 16 142 262 0 ?144 139
 145 140 0 0 1 31 143 238 0 130 140 23 0 -0 0 -.0024 0 0 -1 -1 0 0 .00275 16 130
 236 0 ?146 147 127 143 148 147 1 31 23 540 0 24 143 149 0 +0 0 0 0 0 -1 -1 0 0
 .00275 16 24 538 0 ?150 151 148 23 9 151 1 31 149 858 0 152 23 18 0 -0 0 -.0001
750518845524265 0 0 1 1 0 0 .00125 16 152 871 0 ?153 106 154 149 0 0 1 31 18 910
 0 155 149 6 0 -0 0 -.0024 0 0 -1 -1 0 0 .0015 16 155 925 0 ?156 17 157 18 0 0 1
 17 156 0 158 156 156 0 159 155 0 0 +16 17 926 0 ?160 154 155 6 0 0 1 16 157 921
 0 ?161 155 0 162 0 0 1 17 161 0 163 161 161 0 164 157 0 0 +31 162 959 0 157 0 1
65 0 +0 0 -.0023746 0 0 1 1 0 0 .0015 31 165 901 0 154 162 166 0 +0 0 0 0 0 1 1
 0 0 .0015 16 154 870 0 ?167 152 17 165 0 0 1 31 166 738 0 106 165 168 0 +0 0 0
 0 0 1 1 0 0 .00275 16 106 634 0 ?105 169 152 166 0 0 1 38 255 168 734 0 169 166
 170 0 +15 171 172 173 174 16 169 640 0 ?175 176 106 168 176 176 1 38 170 733 0
 177 168 178 0 +179 171 180 181 182 50 15 126 0 183 179 5 184 +-.00275 .00158771
324027147 -.0024 -1 0 0 0 0 1 52 255 171 728 0 185 186 187 188 +0 0 0 0 0 -1 .00
275 .866025403784438 .5 -1 0 0 40 255 4 172 0 1 4 .000470590358222255 .314227921
893316 ??-.00275 -.004210849493096755 -.001315948439602942 -.00275 -.00118650261
7203596 -.0001414762095990924 -.00275 .0004320802671863325 -194782394317422e-19
 -.00275 .002688562930533455 -.000632712441997484 41 3 CI8 term_use0 0 1 cCZ1 17
3 L?-.00275 -.004210849493096755 -.001315948439602942 41 1 174 L?-.00275 .002688
562930533455 -.000632712441997484 14 255 185 719 189 ?190 191 192 4 171 +193 190
 190 191 20 52 186 898 0 194 195 171 0 -0 0 -.000192557073007669 0 0 1 .001225 .
819152044288993 .573576436351044 1 0 0 52 187 426 0 191 171 196 197 -0 0 -.0024
 0 0 1 .00275 .866025403784439 .5 1 0 0 141 255 188 168 198 199 171 141 198 122
 200 188 171 141 199 170 188 201 171 141 201 178 199 202 171 38 178 732 0 203 17
0 112 0 +204 171 205 206 207 141 202 112 201 200 171 38 112 731 0 113 178 208 0
 +209 171 210 211 212 141 200 208 202 198 171 38 208 730 0 111 112 122 0 +5 171
 213 214 215 16 111 641 0 ?216 103 113 208 31 31 1 38 122 729 0 38 208 217 0 +21
8 171 219 220 221 40 3 213 0 1 3 .0002845081272963855 .304717475405435 ??-.00275
02 .001587597770217635 -.0002456867633647615 -.001277329052010438 .0024379602085
20985 -133463874723833e-20 2000000000007305e-22 .00317554195059678 -.00024568676
33647625 41 1 214 L?-.0027502 .001587597770217635 -.0002456867633647615 41 1 215
 L?2000000000007305e-22 .00317554195059678 -.0002456867633647625 31 217 437 0 22
2 122 223 0 +0 0 -.0024 0 0 1 1 0 0 .00275 50 218 122 0 118 224 209 225 +.00275
 .00158771324027147 -.0024 .5 .866025403784438 0 -.866025403784438 .5 0 40 3 219
 0 1 3 .0002845081272963855 .3047174754054345 ??-199999999999448e-21 .0031755419
5059678 -.000245686763364762 .001472670947989562 .002325179512293425 -1334638747
237768e-21 .0027502 .00158759777021763 -.0002456867633647605 41 1 220 L?-1999999
99999448e-21 .00317554195059678 -.000245686763364762 41 1 221 L?.0027502 .001587
59777021763 -.0002456867633647605 14 118 619 226 ?124 14 114 4 218 +0 0 124 14 2
0 50 224 91 0 227 228 218 0 +1301042606982604e-33 .003175426480542945 0 0 0 -1 -
1 0 0 50 209 123 0 124 218 204 229 +.00275 .00158771324027147 -.0024 -1 0 0 0 0
 1 141 225 135 230 230 218 38 135 427 0 231 232 131 0 +218 187 233 234 235 141 2
30 122 225 225 218 16 231 334 0 ?86 236 126 135 236 236 1 38 232 428 0 237 238 1
35 0 +5 187 239 240 241 40 3 233 0 1 3 .0002845081272963845 .3047174754054335 ??
-1999999999994405e-22 .00317554195059678 -.00215431323663524 .001472670947989562
 .002325179512293425 -.00239866536125276 .0027502 .00158759777021763 -.002154313
23663524 41 1 234 L?-1999999999994405e-22 .00317554195059678 -.00215431323663524
 41 1 235 L?.0027502 .00158759777021763 -.00215431323663524 16 237 329 0 ?242 12
6 243 232 145 145 1 38 238 429 0 243 244 232 0 +209 187 245 246 247 40 3 239 0 1
 3 .0002845081272963845 .304717475405434 ??-.0027502 .001587597770217635 -.00215
431323663524 -.001277329052010438 .002437960208520985 -.00239866536125276 200000
00000076e-20 .00317554195059678 -.00215431323663524 41 1 240 L?-.0027502 .001587
597770217635 -.00215431323663524 41 1 241 L?20000000000076e-20 .0031755419505967
8 -.00215431323663524 16 243 337 0 ?125 237 248 238 126 126 1 38 244 430 0 249 2
50 238 0 +204 187 251 252 253 40 4 245 0 1 4 .000470590358222253 .31422792189331
5 ??.00275 -.00421084949309676 -.00108405156039706 .00275 -.001186502617203598 -
.002258523790400905 .00275 .00043208026718633 -.00238052176056826 .00275 .002688
56293053346 -.001767287558002515 41 1 246 L?.00275 -.00421084949309676 -.0010840
5156039706 41 1 247 L?.00275 .00268856293053346 -.001767287558002515 16 249 340
 0 ?74 248 254 244 248 248 1 38 250 431 0 255 223 244 0 +179 187 256 257 258 50
 204 124 0 259 209 179 260 +-625964416140484e-33 -.003175426480542945 -.0024 .5
 -.866025403784439 0 .866025403784439 .5 0 40 3 251 0 1 3 .000284508127296385 .3
04717475405434 ??.0027502 -.001587597770217635 -.00215431323663524 .001277329052
010436 -.00243796020852099 -.00239866536125276 -200000000000467e-21 -.0031755419
50596785 -.002154313236635235 41 1 252 L?.0027502 -.001587597770217635 -.0021543
1323663524 41 1 253 L?-200000000000467e-21 -.003175541950596785 -.00215431323663
5235 14 259 597 261 ?262 124 263 4 204 +0 0 262 124 20 50 179 125 0 262 204 15 2
64 +-.00275 -.00158771324027147 -.0024 -.5 -.866025403784438 0 .866025403784438
 -.5 0 141 260 244 265 265 204 141 265 178 260 260 204 14 262 586 266 ?183 259 2
67 4 179 +0 0 183 259 20 141 264 250 268 268 179 141 268 170 264 264 179 81 255
 1 266 1078 269 262 270 0 261 271 272 14 183 575 271 ?227 262 273 4 15 +0 0 227
 262 20 15 267 283 0 138 262 0 13 20 41 0 0 0 0 0 0 8 12 14 12 917 274 ?14 0 275
 4 196 -0 0 14 0 20 81 1 274 1080 269 12 276 0 271 277 278 14 14 627 277 ?118 12
 279 4 5 +0 0 118 12 20 15 275 857 0 280 12 281 51 255 196 189 0 12 187 228 0 +0
 0 -.0024 0 0 1 .00125 1 0 0 50 228 2 0 282 196 224 0 +1301042606982604e-33 .003
175426480542945 -.0024 0 0 -1 -1 0 0 14 282 259 283 ?284 227 158 4 228 +0 0 284
 227 20 81 1 283 1082 269 282 285 0 277 286 287 14 284 389 286 ?288 282 289 4 18
7 -290 291 288 282 20 14 227 561 292 ?282 183 293 4 224 -0 0 282 183 20 15 158 9
08 0 156 282 294 15 294 258 0 68 282 0 17 68 0 294 295 296 66 297 148 0 146 -17
 295 0 294 298 68 63 146 130 0 299 -17 296 0 294 68 300 51 301 302 0 303 -17 297
 0 304 77 305 51 68 148 0 296 +16 148 257 0 ?297 24 302 143 302 130 1 17 146 0 2
89 80 242 66 295 130 0 305 +15 289 391 0 242 284 0 17 80 0 289 242 146 78 306 30
7 0 308 +17 242 0 289 146 80 63 308 237 0 295 +17 305 0 304 297 77 66 309 310 0
 306 +15 304 419 0 77 191 0 17 77 0 304 305 297 75 303 255 0 309 +17 309 0 273 1
41 306 75 305 310 0 311 -16 310 345 0 ?305 255 307 223 307 307 1 17 306 0 273 30
9 312 66 80 307 0 0 -15 273 272 0 141 183 0 17 312 0 273 306 175 78 144 142 0 0
 -16 307 346 0 ?80 310 222 223 310 310 1 16 222 347 0 ?313 307 31 217 0 0 1 38 2
23 432 0 307 217 250 0 +15 187 314 315 316 40 4 314 0 1 4 .000470590358222253 .3
14227921893315 ??-.00275 -.004210849493096755 -.001084051560397062 -.00275 -.001
186502617203596 -.002258523790400905 -.00275 .000432080267186332 -.0023805217605
6826 -.00275 .00268856293053346 -.001767287558002515 41 1 315 L?-.00275 -.004210
849493096755 -.001084051560397062 41 1 316 L?-.00275 .00268856293053346 -.001767
287558002515 17 313 0 317 86 59 60 318 222 0 298 +16 31 632 0 ?30 222 121 208 11
1 111 1 17 30 0 279 319 216 99 25 31 0 117 +16 121 633 0 ?116 31 38 122 38 38 1
 15 279 324 0 144 14 0 17 319 0 279 299 30 81 117 127 0 0 -17 216 0 279 30 144 1
0 50 111 0 0 +17 117 0 114 116 320 99 319 127 0 0 +17 320 0 114 117 119 81 62 23
6 0 319 -17 119 0 114 320 115 60 86 231 0 0 -17 62 0 321 65 83 60 320 236 0 313
 +16 236 333 0 ?62 145 231 135 231 231 1 16 145 330 0 ?83 142 236 232 237 237 1
 17 83 0 321 62 65 81 299 145 0 320 +15 321 376 0 83 288 0 17 65 0 321 83 62 63
 298 147 0 242 +17 299 0 279 308 319 63 83 145 0 0 -17 308 0 279 144 299 78 242
 237 0 312 -17 144 0 279 216 308 48 312 142 0 0 +17 298 0 294 318 295 60 65 147
 0 119 -16 147 241 0 ?65 322 130 143 130 322 1 16 322 249 0 ?323 302 147 143 147
 302 1 17 323 0 324 71 56 57 300 322 0 318 +16 302 253 0 ?301 148 322 143 322 14
8 1 17 301 0 325 74 53 54 296 302 0 300 +15 325 397 0 74 290 0 17 74 0 325 53 30
1 72 326 249 0 327 +17 53 0 325 301 74 51 327 254 0 297 +17 300 0 294 296 318 54
 323 322 0 326 -17 318 0 294 300 298 57 313 222 0 125 -17 326 0 263 328 329 54 7
4 249 0 0 -15 263 294 0 132 259 0 17 328 0 263 132 326 69 56 248 0 330 -17 329 0
 263 326 331 72 138 133 0 0 -17 331 0 263 329 332 93 44 203 0 138 +17 138 0 267
 333 327 93 329 133 0 0 +17 333 0 267 334 138 45 95 335 0 0 +17 327 0 267 138 30
3 72 53 254 0 329 -17 303 0 267 327 311 51 77 255 0 0 -16 254 342 0 ?53 249 255
 250 255 255 1 16 255 343 0 ?77 254 310 250 254 254 1 17 311 0 267 303 334 75 14
1 139 0 0 -17 334 0 267 311 333 96 336 177 0 141 +17 141 0 273 337 309 96 311 13
9 0 0 +17 337 0 273 175 141 87 98 176 0 0 +17 175 0 273 312 337 48 89 169 0 144
 +17 98 0 192 336 150 96 337 176 0 334 -16 176 657 0 ?337 177 169 168 169 169 1
 16 177 656 0 ?334 335 176 170 335 335 1 16 335 645 0 ?333 203 177 170 177 177 1
 16 203 644 0 ?331 338 335 178 338 338 1 16 338 638 0 ?332 113 203 178 203 203 1
 17 332 0 263 331 132 40 92 338 0 0 +16 113 636 0 ?39 111 338 112 103 103 1 17 3
9 0 339 340 92 33 109 113 0 35 +15 339 687 0 39 341 0 17 340 0 339 92 39 40 107
 342 0 343 +17 92 0 339 39 340 90 332 338 0 109 -17 109 0 108 330 102 90 39 113
 0 132 -17 330 0 108 125 109 69 132 128 0 0 -17 132 0 263 332 328 90 330 128 0 0
 +17 125 0 108 123 330 57 71 243 0 0 +17 71 0 324 56 323 69 125 243 0 328 -15 32
4 385 0 56 291 0 17 56 0 324 323 71 54 328 248 0 301 +16 248 339 0 ?56 243 249 2
44 249 249 1 14 291 383 344 ?290 345 324 4 187 -284 345 290 345 20 81 1 344 1085
 269 291 346 0 292 347 348 14 290 395 347 ?191 291 325 4 187 -191 284 191 291 20
 14 345 377 349 ?291 288 317 4 187 -291 288 291 288 20 81 1 349 1087 269 345 350
 0 347 351 352 14 288 374 351 ?345 284 321 4 187 -345 191 345 284 20 15 317 379
 0 86 345 0 17 86 0 317 59 313 84 119 231 0 123 +17 59 0 317 313 86 57 123 126 0
 323 -16 126 335 0 ?123 231 237 238 243 243 1 81 1 351 1088 269 288 353 0 349 35
4 355 14 191 417 354 ?185 290 304 4 187 -288 290 185 290 20 81 1 354 1089 269 19
1 356 0 351 357 358 80 255 1 269 359 360 9000 1 1 1 1 1 1 1 1 0 FFFFTFTFFFFFFF1
 81 1 356 1015 361 191 0 354 362 363 364 81 1 357 1090 269 190 365 0 354 366 367
 82 255 1 358 133365865 14 190 697 357 ?341 185 368 4 171 +185 369 341 185 20 81
 1 365 1017 361 190 0 357 363 370 371 81 1 366 1091 269 341 370 0 357 372 373 82
 1 367 183042153 14 341 685 366 ?104 190 339 4 171 +369 104 104 190 20 81 1 370
 1018 361 341 0 366 365 374 375 81 1 372 1092 269 104 374 0 366 376 377 82 1 373
 184746089 14 104 679 372 ?193 341 34 4 171 +341 193 193 341 20 81 1 374 1019 36
1 104 0 372 370 378 379 81 1 376 1093 269 193 378 0 372 380 381 82 1 377 1855980
57 14 193 676 376 ?369 104 27 4 171 +104 185 369 104 20 81 1 378 1020 361 193 0
 376 374 382 383 81 1 380 1094 269 369 382 0 376 384 385 82 1 381 186056809 14 3
69 691 380 ?194 193 386 4 171 +190 341 194 193 20 81 1 382 1021 361 369 0 380 37
8 387 388 81 1 384 1095 269 194 387 0 380 389 390 82 1 385 183894121 14 194 874
 384 ?391 369 392 4 186 +0 0 391 369 20 81 1 387 1022 361 194 0 384 382 393 394
 81 1 389 1096 269 391 393 0 384 395 396 82 1 390 243073131 14 391 927 389 ?397
 194 398 4 399 +0 0 397 194 20 81 1 393 1023 361 391 0 389 387 400 401 81 1 395
 1097 269 397 400 0 389 402 403 82 1 396 245760107 14 397 943 395 ?0 391 404 4 1
95 +0 0 0 391 20 81 1 400 1024 361 397 0 395 393 0 405 81 1 402 1098 269 124 406
 0 395 0 407 82 1 403 238551147 14 124 608 402 ?259 118 108 4 209 -0 0 259 118 2
0 81 1 406 1004 361 124 0 402 408 409 410 82 1 407 191627369 80 1 361 0 411 8001
 0 0 0 0 3 5 0 0 0 FFFFTFTFFFFFFF2 81 1 408 1003 361 118 0 226 412 406 413 81 1
 409 1005 361 259 0 261 406 270 414 83 255 3 410 .776470588235294 .7568627450980
39 .737254901960784 81 1 261 1077 269 259 409 0 226 266 415 81 1 270 1006 361 26
2 0 266 409 416 417 83 3 414 .776470588235294 .756862745098039 .737254901960784
 81 1 416 1007 361 183 0 271 270 418 419 83 3 417 .776470588235294 .756862745098
039 .737254901960784 81 1 271 1079 269 183 416 0 266 274 420 81 1 418 1008 361 2
27 0 292 416 285 421 83 3 419 .776470588235294 .756862745098039 .737254901960784
 81 1 292 1084 269 227 418 0 286 344 422 81 1 285 1009 361 282 0 283 418 423 424
 83 3 421 .776470588235294 .756862745098039 .737254901960784 81 1 423 1010 361 2
84 0 286 285 353 425 83 3 424 .776470588235294 .756862745098039 .737254901960784
 81 1 286 1083 269 284 423 0 283 292 426 81 1 353 1011 361 288 0 351 423 350 427
 83 3 425 .776470588235294 .756862745098039 .737254901960784 81 1 350 1012 361 3
45 0 349 353 346 428 83 3 427 .776470588235294 .756862745098039 .737254901960784
 81 1 346 1013 361 291 0 344 350 362 429 83 3 428 .776470588235294 .756862745098
039 .737254901960784 81 1 362 1014 361 290 0 347 346 356 430 83 3 429 .776470588
235294 .756862745098039 .737254901960784 81 1 347 1086 269 290 362 0 344 349 431
 83 3 430 .776470588235294 .756862745098039 .737254901960784 82 1 431 156434537
 82 1 426 157286505 82 1 422 178389099 82 1 420 188285033 81 1 226 1076 269 118
 408 0 189 261 432 82 1 415 190513257 81 1 189 1075 269 185 363 0 0 226 433 82 1
 432 192741481 81 1 363 1016 361 185 0 189 356 365 434 82 1 433 142213225 83 3 4
34 .776470588235294 .756862745098039 .737254901960784 81 1 412 1002 361 14 0 277
 276 408 435 83 3 413 .776470588235294 .756862745098039 .737254901960784 81 1 27
7 1081 269 14 412 0 274 283 436 81 1 276 1001 361 12 0 274 0 412 437 83 3 435 .7
76470588235294 .756862745098039 .737254901960784 83 3 437 .776470588235294 .7568
62745098039 .737254901960784 82 1 436 193527913 79 255 15 411 SDL/TYSA_COLOUR83
 3 405 .776470588235294 .756862745098039 .737254901960784 15 404 945 0 159 397 1
63 51 195 955 0 397 399 186 0 -0 0 -.0250375057290932 0 0 1 .0015 1 0 0 52 399 9
56 0 391 0 195 0 -0 0 -.0023746 0 0 -1 .0015 .819152044288989 .573576436351051 -
1 0 0 17 159 0 404 159 159 0 156 155 0 0 -15 163 946 0 161 397 0 83 3 401 .77647
0588235294 .756862745098039 .737254901960784 15 398 929 0 164 391 438 17 164 0 3
98 164 164 0 161 157 0 0 -15 438 930 0 160 391 0 17 160 0 438 160 160 0 439 17 0
 0 +17 439 0 281 439 439 0 160 17 0 0 -15 281 915 0 439 12 0 83 3 394 .776470588
235294 .756862745098039 .737254901960784 15 392 876 0 167 194 440 17 167 0 392 1
67 167 0 441 154 0 0 +15 440 877 0 153 194 0 17 153 0 440 153 153 0 280 152 0 0
 +17 280 0 275 280 280 0 153 152 0 0 -17 441 0 293 441 441 0 167 154 0 0 -15 293
 863 0 441 227 442 15 442 560 0 443 227 0 17 443 0 442 444 445 87 21 9 0 337 -17
 444 0 442 343 443 45 150 24 0 333 -17 445 0 442 443 105 10 28 22 0 216 -17 21 0
 386 50 89 10 443 9 0 445 +15 386 693 0 89 369 0 17 50 0 386 89 21 48 216 111 0
 175 -17 89 0 386 21 50 87 175 169 0 150 -17 150 0 192 98 336 87 444 24 0 443 +1
5 192 721 0 150 185 0 17 336 0 192 150 98 45 334 177 0 444 -17 105 0 442 445 107
 26 35 106 0 116 +17 28 0 27 29 25 26 445 22 0 105 +16 22 555 0 ?28 9 342 23 342
 9 1 16 342 547 0 ?340 22 151 23 151 22 1 16 151 543 0 ?47 342 24 23 24 342 1 17
 47 0 368 95 44 45 343 151 0 336 +15 368 699 0 47 190 0 17 95 0 368 44 47 93 333
 335 0 331 -17 44 0 368 47 95 40 331 203 0 340 -17 343 0 442 107 444 40 47 151 0
 332 -17 107 0 442 105 343 33 340 342 0 102 -15 27 678 0 28 193 0 17 29 0 27 25
 28 99 116 121 0 30 -83 3 388 .776470588235294 .756862745098039 .737254901960784
 83 3 383 .776470588235294 .756862745098039 .737254901960784 83 3 379 .776470588
235294 .756862745098039 .737254901960784 83 3 375 .776470588235294 .756862745098
039 .737254901960784 83 3 371 .776470588235294 .756862745098039 .737254901960784
 83 3 364 .776470588235294 .756862745098039 .737254901960784 79 14 360 SWEntUnch
anged82 1 355 159449193 82 1 352 158990441 82 1 348 158138473 82 1 287 151781483
 82 1 278 245301355 82 1 272 189399145 40 3 256 0 1 3 .000284508127296385 .30471
74754054335 ??199999999999374e-21 -.003175541950596785 -.002154313236635235 -.00
1472670947989564 -.00232517951229343 -.00239866536125276 -.0027502 -.00158759777
0217635 -.00215431323663524 41 1 257 L?199999999999374e-21 -.003175541950596785
 -.002154313236635235 41 1 258 L?-.0027502 -.001587597770217635 -.00215431323663
524 141 229 238 446 446 209 141 446 112 229 229 209 40 4 210 0 1 4 .000470590358
222254 .314227921893316 ??.00275 -.00421084949309676 -.001315948439602942 .00275
 -.001186502617203598 -.0001414762095990932 .00275 .0004320802671863305 -1947823
943174195e-20 .00275 .00268856293053345 -.000632712441997483 41 1 211 L?.00275 -
.00421084949309676 -.001315948439602942 41 1 212 L?.00275 .00268856293053345 -.0
00632712441997483 40 3 205 0 1 3 .0002845081272963855 .304717475405435 ??.002750
2 -.001587597770217635 -.000245686763364762 .001277329052010436 -.00243796020852
099 -133463874723933e-20 -2000000000005985e-22 -.003175541950596785 -.0002456867
63364763 41 1 206 L?.0027502 -.001587597770217635 -.000245686763364762 41 1 207
 L?-2000000000005985e-22 -.003175541950596785 -.000245686763364763 141 197 223 4
47 448 187 141 447 135 449 197 187 141 448 250 197 450 187 141 450 244 448 451 1
87 141 451 238 450 449 187 141 449 232 451 447 187 141 184 223 452 452 15 141 45
2 168 184 184 15 40 3 180 0 1 3 .0002845081272963855 .3047174754054345 ??1999999
999993525e-22 -.003175541950596785 -.000245686763364763 -.001472670947989564 -.0
0232517951229343 -1334638747239082e-21 -.0027502 -.001587597770217635 -.00024568
67633647615 41 1 181 L?1999999999993525e-22 -.003175541950596785 -.0002456867633
64763 41 1 182 L?-.0027502 -.001587597770217635 -.0002456867633647615 19 13 135
 0 1 0 8 4 S0 141 16 232 453 453 5 141 453 208 16 16 5 74 4 CI16 index_map_offse
t0 0 1 dCCZ20 11 2 0 0 402 400 0 0 0 0 0 0 0 0 0 0 0 0 0 0 0 0 0 0 1 0 
