**ABCDEFGHIJKLMNOPQRSTUVWXYZabcdefghijklmnopqrstuvwxyz**************************
**PARASOLID !"#$%&'()*+,-./:;<=>?@[\]^_`{|}~0123456789**************************
**PART1;
MC=AMD64;
MC_MODEL=Intel64 Family 6 Model 60 Stepping 3, GenuineIntel;
MC_ID=unknown;
OS=Windows_NT;
OS_RELEASE=unknown;
FRU=Parasolid Version 28.0, build 209,  1-25-2016;
APPL=SOLIDWORKS 2016-2016195;
SITE=;
USER=unknown;
FORMAT=text;
GUISE=transmit;
KEY=서보고정나사;
FILE=서보고정나사.x_t;
DATE=Thu Mar 09 14:45:34 2017;
**PART2;
SCH=SCH_2800209_28002;
USFLD_SIZE=0;
**PART3;
**END_OF_HEADER*****************************************************************
T51 : TRANSMIT FILE created by modeller version 280020923 SCH_2800209_28002_1300
6200 0 12 30 CCCCCCCCCCCCCDI5 owner1040 0 CCCCCCCCCA13 boundary_mesh1006 0 A16 i
ndex_map_offset0 0 1 dA9 index_map82 0 A17 node_id_index_map82 0 A20 schema_embe
dding_map82 0 A5 child12 0 A14 lowest_node_id0 0 1 dZ1 1278 0 2 0 0 0 0 1e3 1e-8
 0 3 0 1 0 1 1 4 5 6 7 8 9 10 0 0 0 0 0 0 0 70 11 CI9 list_type0 0 1 uI10 notran
smit0 0 1 lCCCDCCDI12 finger_index0 0 1 dI12 finger_block1012 0 CZ2 0 4 T1 0 0 2
 20 1 11 11 13 255 4 41 0 1 0 12 0 0 13 0 54 255 5 154 0 14 15 0 0 +.0014 0 0 -1
 0 0 .0011 1e-4 0 0 1 133 255 6 867 0 16 17 0 0 +18 91e-5 -.000596290812545844 2
31e-6 91e-5 -.0003798400490226595 231e-6 1 .81850234904756 29 255 7 779 0 10 19
 0 91e-5 231e-6 .0003798400490226615 19 8 CCCCCCCA5 owner12 0 Z8 45 0 1 13 0 20
 V0 16 255 9 784 0 ?21 0 22 23 0 0 1 18 255 10 774 0 24 0 25 7 200000000000542e-
22 1 17 255 24 0 26 27 28 10 29 30 0 31 -18 25 161 0 32 10 33 19 ?1 17 32 0 34 3
5 36 25 37 38 0 39 +18 33 224 0 40 25 41 42 ?1 29 19 163 0 25 42 7 .000233233534
269022 .000933714068878837 231e-6 29 42 327 0 33 43 19 .0002332335342690215 -.00
0933714068878836 231e-6 29 43 328 0 41 44 42 .000233233534269022 -.0009337140688
78836 -231e-6 18 41 214 0 45 33 46 43 ?1 29 44 329 0 46 47 43 .00023323353426902
15 .000933714068878837 -231e-6 18 46 217 0 48 41 49 44 ?1 29 47 331 0 50 51 44 9
1e-5 .000596290812545845 -231e-6 18 50 218 0 52 53 54 47 2e-8 1 29 51 332 0 54 5
5 47 91e-5 .000596290812545845 231e-6 18 54 219 0 35 50 56 51 2e-8 1 29 55 333 0
 49 57 51 91e-5 -.000596290812545845 -231e-6 18 49 215 0 58 46 53 55 2e-8 1 29 5
7 334 0 53 59 55 91e-5 -.000596290812545844 231e-6 18 53 216 0 60 49 50 57 2e-8
 1 29 59 684 0 56 61 57 .000233233534269022 -.0002310000000000035 .0009337140688
78836 18 56 520 0 62 54 63 59 ?1 29 61 687 0 63 64 59 .0002332335342690215 -.000
2309999999999965 -.000933714068878837 18 63 533 0 65 56 66 61 ?1 29 64 690 0 66
 67 61 .000233233534269022 .000231000000000003 -.000933714068878836 18 66 518 0
 68 63 69 64 ?1 29 67 693 0 69 70 64 .0002332335342690215 .0002309999999999965 .
000933714068878838 18 69 537 0 71 66 72 67 ?1 29 70 694 0 73 74 67 91e-5 .000230
9999999999975 .000596290812545845 18 73 525 0 75 76 77 70 2e-8 1 29 74 695 0 77
 78 70 91e-5 -231e-6 .000596290812545844 18 77 521 0 79 73 80 74 2e-8 1 29 78 69
6 0 72 81 74 91e-5 231e-6 -.000596290812545844 18 72 519 0 82 69 76 78 2e-8 1 29
 81 697 0 76 83 78 91e-5 -231e-6 -.000596290812545845 18 76 529 0 84 72 73 81 2e
-8 1 29 83 1051 0 80 85 81 613546050321748e-19 .0004478436709126075 -231e-6 18 8
0 980 0 86 77 87 83 ?1 29 85 1052 0 87 88 83 613546050323631e-19 231e-6 -.000447
843670913395 18 87 981 0 89 80 90 85 ?1 29 88 1053 0 90 91 85 613546050321748e-1
9 -.0004478436709126075 -231e-6 18 90 989 0 92 87 93 88 ?1 29 91 1054 0 93 94 88
 61354605032363e-18 -231e-6 -.000447843670913397 18 93 990 0 95 90 96 91 ?1 29 9
4 1055 0 96 97 91 613546050321748e-19 -.0004478436709126075 231e-6 18 96 984 0 9
8 93 99 94 ?1 29 97 1056 0 99 100 94 613546050323631e-19 -231e-6 .00044784367091
3395 18 99 985 0 101 96 102 97 ?1 29 100 1057 0 102 103 97 613546050321748e-19 .
0004478436709126075 231e-6 18 102 993 0 104 99 105 100 ?1 29 103 1058 0 105 106
 100 61354605032363e-18 231e-6 .0004478436709133965 18 105 994 0 27 102 107 103
 ?1 29 106 1059 0 107 108 103 91e-5 -231e-6 .0003798400490226585 18 107 986 0 10
9 105 110 106 200000000000542e-22 1 29 108 1060 0 110 111 106 91e-5 -.0003798400
490226595 231e-6 18 110 992 0 112 107 113 108 2e-8 1 29 111 1061 0 113 114 108 9
1e-5 -.0003798400490226595 -231e-6 18 113 983 0 115 110 116 111 200000000000271e
-22 1 29 114 1062 0 116 117 111 91e-5 -231e-6 -.00037984004902266 18 116 991 0 1
18 113 119 114 200000000000271e-22 1 29 117 1063 0 119 120 114 91e-5 231e-6 -.00
03798400490226585 18 119 982 0 121 116 122 117 200000000000606e-22 1 29 120 1064
 0 122 123 117 91e-5 .0003798400490226595 -231e-6 18 122 988 0 124 119 125 120 2
00000000000542e-22 1 29 123 1065 0 125 126 120 91e-5 .0003798400490226595 231e-6
 18 125 987 0 28 122 127 123 200000000000542e-22 1 29 126 1067 0 127 0 123 .0010
54448444994912 -997010430272489e-34 0 18 127 996 0 128 125 0 126 ?1 17 128 0 129
 128 128 127 0 0 0 0 ?15 255 129 1019 0 128 130 0 14 255 130 1016 131 ?0 132 133
 4 134 +0 0 0 132 20 81 255 1 131 1228 135 130 136 0 0 137 138 14 132 1013 137 ?
130 139 26 4 140 +141 139 130 139 20 15 133 1018 0 29 130 129 52 255 134 1024 0
 130 0 140 0 -.001054448444994912 0 0 -1 0 0 997010430272489e-34 .95105651629515
5 .309016994374943 0 0 1 13 20 44 0 0 0 0 0 0 8 12 14 12 955 142 ?143 0 144 4 15
 -0 0 143 0 20 81 1 142 1230 135 12 145 0 137 146 147 14 143 939 146 ?148 12 149
 4 150 +148 148 148 12 20 15 144 74 0 151 12 152 53 255 15 82 0 12 153 5 0 -.002
1 0 0 .0021 -1 0 0 0 1 0 50 255 153 81 0 154 155 15 0 +.0133 .001 0 -1 0 0 0 0 1
 14 154 67 156 ?157 158 159 4 153 -0 0 157 158 20 51 255 155 80 0 157 160 153 0
 -0 0 0 -1 0 0 .001 0 0 1 14 157 62 161 ?162 154 163 4 155 -0 0 162 154 20 50 16
0 79 0 162 164 155 0 +.0013 .001 0 -1 0 0 0 0 1 14 162 57 165 ?166 157 167 4 160
 -0 0 166 157 20 54 164 78 0 166 168 160 0 -.001390246302838846 0 0 -1 0 0 .0005
53398309869187 .0012 0 0 1 14 166 52 169 ?14 162 170 4 164 -0 0 14 162 20 50 168
 260 0 171 172 164 173 +91e-5 .000596290812545845 231e-6 1 0 0 0 0 -1 14 171 906
 174 ?175 176 177 4 168 -175 178 175 176 20 50 172 261 0 179 180 168 181 +91e-5
 .000596290812545845 231e-6 -.446197753347436 -.894934391398443 0 .8949343913984
43 -.446197753347436 0 141 255 173 182 183 184 168 137 255 182 282 0 1 185 186 1
87 -168 188 0 ?141 183 189 190 173 168 141 184 191 173 192 168 137 191 277 0 1 1
86 193 194 -168 195 0 ?141 192 196 184 197 168 137 196 273 0 1 193 198 199 -168
 200 0 ?141 197 18 192 201 168 137 18 270 0 1 198 202 203 -168 204 0 ?141 201 20
5 197 206 168 137 205 732 0 1 207 208 209 -168 210 0 ?141 206 211 201 212 168 13
7 211 734 0 1 208 213 214 -168 215 0 ?141 212 213 206 216 168 137 213 736 0 1 21
1 217 218 -168 219 0 ?141 216 220 212 190 168 137 220 739 0 1 217 221 222 -168 2
23 0 ?141 190 224 216 183 168 137 224 741 0 1 221 189 225 -168 226 0 ?133 221 74
0 0 227 220 224 0 +224 91e-5 -231e-6 .000596290812545844 91e-5 .0002309999999999
975 .000596290812545845 1 0 137 189 743 0 1 224 228 229 -168 230 0 ?141 225 221
 225 225 224 134 255 226 0 0 0 0 0 0 +231 232 136 255 231 1 2 2 2 5 FFF1 233 234
 235 135 255 232 2 0 45 255 4 233 -.0003652908125458455 -.000365290812545847 -.0
00365290812545844 -.000827290812545847 127 255 2 234 2 2 128 255 2 235 0 1 133 2
28 776 0 75 189 236 0 +237 91e-5 231e-6 .0003798400490226615 91e-5 .000230999999
9999975 .000596290812545845 .181497650952439 0 141 229 236 229 229 189 134 230 0
 0 0 0 0 0 +238 239 136 238 1 2 2 2 5 FFF1 240 241 242 135 239 2 0 45 4 240 .000
827290812545844 -.000365290812545843 -.0003652908125458455 -.000365290812545847
 127 2 241 2 2 128 2 242 0 1 133 236 777 0 243 228 23 0 +189 91e-5 .000230999999
9999975 .000596290812545845 91e-5 231e-6 .0003798400490226615 1 .818502349047561
 17 243 0 244 245 227 10 75 246 236 0 -133 23 786 0 9 236 247 0 +247 61354605032
363e-18 231e-6 .0004478436709133965 91e-5 231e-6 .0003798400490226605 3612510583
203635e-20 .000887490771304982 38 255 247 787 0 1 23 248 249 +250 140 251 252 25
3 133 248 813 0 84 247 254 0 +255 91e-5 -231e-6 -.000379840049022688 91e-5 -231e
-6 -.000596290812545845 .1814976509524165 0 141 249 23 249 249 247 50 250 584 0
 256 257 258 259 +91e-5 .0002309999999999975 .000596290812545845 -32894047668454
2e-30 -1 -3673305735542545e-30 1 -328940476684542e-30 -1148489535934242e-45 52 1
40 1023 0 132 134 260 261 -91e-5 0 0 -1 0 0 .000444566601131412 .069756473744118
1 .997564050259825 0 0 1 40 255 2 251 0 1 2 15631378865498e-19 .0032453568342151
3 ??2534061925907105e-20 231e-6 .000450675416027531 .00091020000000001 231e-6 .0
00379823680392864 41 3 CI8 term_use0 0 1 cCZ1 252 L?2534061925907105e-20 231e-6
 .000450675416027531 41 1 253 L?.00091020000000001 231e-6 .000379823680392864 50
 260 586 0 262 140 257 263 +0 .0002310000000000035 -.00105 -.4461977533474355 -3
1246467270566e-28 .894934391398443 -.894934391398443 1557891129246305e-30 -.4461
977533474355 141 261 247 264 265 140 141 264 266 267 261 140 141 265 268 261 269
 140 38 268 1037 0 1 270 271 272 +150 140 273 274 275 141 269 276 265 277 140 38
 276 1035 0 1 271 278 279 +257 140 280 281 282 141 277 283 269 284 140 38 283 10
33 0 1 278 285 286 +150 140 287 288 289 141 284 290 277 291 140 38 290 1031 0 1
 285 292 293 +257 140 294 295 296 141 291 297 284 267 140 38 297 1029 0 1 292 29
8 299 +180 140 300 301 302 141 267 303 291 264 140 38 303 1027 0 1 298 304 305 +
250 140 306 307 308 133 298 1028 0 309 297 303 0 +303 91e-5 231e-6 -.00037984004
90226585 613546050323631e-19 231e-6 -.000447843670913395 20066840122791e-20 .000
851566333874173 133 304 1026 0 310 303 266 0 +266 613546050323629e-19 .000447843
670913396 -231e-6 91e-5 .0003798400490226595 -231e-6 3612510583203585e-20 .00088
7490771304982 141 305 298 305 305 303 40 2 306 0 1 2 156313788635596e-20 .003245
35683422516 ??9102e-7 231e-6 -.0003798236803927325 253406192590774e-19 231e-6 -.
0004506754160276 41 1 307 L?9102e-7 231e-6 -.0003798236803927325 41 1 308 L?2534
06192590774e-19 231e-6 -.0004506754160276 16 310 967 0 ?311 312 313 304 0 0 1 38
 266 1025 0 1 304 314 315 +180 140 316 317 318 30 255 314 678 0 1 266 319 320 +0
 .000230999999999996 .00105 .894934391398443 134464062124934e-29 -.4461977533474
36 141 315 304 315 315 266 50 180 262 0 321 150 172 322 +91e-5 .0005962908125458
45 -231e-6 -328940476684542e-30 -181824396699412e-30 1 1 0 328940476684542e-30 4
0 2 316 0 1 2 1563137886549745e-21 .00324535683421513 ??253406192590715e-19 .000
45067541602753 -231e-6 .00091020000000001 .000379823680392863 -231e-6 41 1 317 L
?253406192590715e-19 .00045067541602753 -231e-6 41 1 318 L?.00091020000000001 .0
00379823680392863 -231e-6 14 321 923 323 ?176 148 324 4 180 +176 176 176 148 20
 50 150 263 0 143 325 180 326 +91e-5 -.000596290812545844 231e-6 641042621852383
e-30 -909121983497061e-31 -1 -1 0 -641042621852383e-30 141 322 327 328 329 180 1
37 327 302 0 1 330 185 331 -180 332 0 ?141 328 266 329 322 180 141 329 297 322 3
28 180 133 330 303 0 333 334 327 0 +327 91e-5 -.000596290812545845 -231e-6 91e-5
 -.00037984004902266 -231e-6 1 .818502349047561 133 185 283 0 335 327 182 0 +182
 91e-5 .000596290812545845 231e-6 91e-5 .000596290812545845 -231e-6 1 0 141 331
 330 336 336 327 134 332 0 0 0 0 0 0 +337 338 136 337 1 2 2 2 5 FFF1 339 340 341
 135 338 2 0 45 4 339 -713275958879596e-49 0 -713275958879596e-49 -.001192581625
09169 127 2 340 2 2 128 2 341 0 1 141 336 342 331 331 327 133 342 846 0 52 254 3
43 0 +327 91e-5 .00037984004902266 -231e-6 91e-5 .000596290812545845 -231e-6 .18
14976509524395 0 17 52 0 344 345 311 50 346 347 342 348 +133 254 814 0 349 248 3
42 0 +213 91e-5 -231e-6 -.000596290812545845 91e-5 -231e-6 -.000379840049022688
 1 .818502349047583 133 343 847 0 346 342 17 0 +191 91e-5 .000596290812545845 -2
31e-6 91e-5 .00037984004902266 -231e-6 1 .818502349047561 17 346 0 350 351 335 1
22 52 347 343 0 -133 17 866 0 60 343 6 0 +352 91e-5 -.0003798400490226595 231e-6
 91e-5 -.000596290812545844 231e-6 .1814976509524395 0 17 60 0 149 353 354 53 16
 355 17 356 +137 352 306 0 1 357 358 359 -150 360 0 ?133 357 307 0 361 362 352 0
 +352 91e-5 .000596290812545845 231e-6 91e-5 .00037984004902266 231e-6 1 .818502
34904756 133 358 305 0 363 352 334 0 +334 91e-5 -.000596290812545844 231e-6 91e-
5 -.000596290812545844 -231e-6 1 0 141 359 357 364 364 352 134 360 0 0 0 0 0 0 +
365 366 136 365 1 2 2 2 5 FFF1 367 368 369 135 366 2 0 45 4 367 695019803268157e
-49 0 695019803268157e-49 .00119258162509169 127 2 368 2 2 128 2 369 0 1 141 364
 17 359 359 352 17 363 0 370 371 356 49 372 373 358 0 +137 334 304 0 1 358 330 3
74 -325 375 0 ?141 374 358 374 374 334 50 325 264 0 376 258 150 377 +0 -.00105 -
231e-6 -.4461977533474355 .894934391398443 0 -.894934391398443 -.446197753347435
5 0 134 375 0 0 0 0 0 0 +378 379 136 378 1 2 2 2 5 FFF1 380 381 382 135 379 2 0
 45 4 380 -.001016834316287718 216840434497101e-33 -.001016834316287718 462e-6 1
27 2 381 2 2 128 2 382 0 1 14 376 227 383 ?179 14 370 4 325 +0 0 179 14 20 50 25
8 583 0 384 250 325 385 +91e-5 -231e-6 .000596290812545844 -.446197753347436 312
46467270566e-28 -.894934391398443 .894934391398443 1557891129246305e-30 -.446197
753347436 141 377 334 377 377 325 14 384 541 386 ?141 262 387 4 258 +0 0 141 262
 20 141 385 388 385 385 258 137 388 664 0 1 389 390 391 -258 392 0 ?133 389 665
 0 393 394 388 0 +388 91e-5 .0002309999999999975 .000596290812545845 91e-5 -231e
-6 .000596290812545844 1 0 133 390 663 0 395 388 396 0 +396 91e-5 -231e-6 .00059
6290812545844 91e-5 -231e-6 .00037984004902266 1 .818502349047561 141 391 389 39
1 391 388 134 392 0 0 0 0 0 0 +397 398 136 397 1 2 2 2 5 FFF1 399 400 401 135 39
8 2 0 45 4 399 0 0 0 -462e-6 127 2 400 2 2 128 2 401 0 1 17 395 0 402 403 79 107
 404 405 390 0 +137 396 662 0 1 390 406 407 -257 408 0 ?133 406 661 0 409 396 41
0 0 +410 91e-5 -231e-6 -.000596290812545845 91e-5 231e-6 -.000596290812545844 1
 0 141 407 390 407 407 396 50 257 585 0 411 260 250 412 +91e-5 -231e-6 -.0005962
90812545845 641042621852383e-30 1 3400569140493425e-30 -1 641042621852383e-30 22
3818835160067e-44 134 408 0 0 0 0 0 0 +413 414 136 413 1 2 2 2 5 FFF1 415 416 41
7 135 414 2 0 45 4 415 695019803268157e-49 0 695019803268157e-49 .00119258162509
169 127 2 416 2 2 128 2 417 0 1 14 411 824 418 ?419 256 420 4 257 +419 419 419 2
56 20 141 412 396 421 422 257 141 421 290 423 412 257 141 422 255 412 423 257 13
7 255 710 0 1 424 207 425 -257 426 0 ?141 423 276 422 421 257 137 424 709 0 1 42
7 255 428 -250 429 0 ?133 207 731 0 430 255 205 0 +205 91e-5 231e-6 -.0003798400
4902266 91e-5 231e-6 -.000596290812545844 .181497650952439 0 141 425 248 425 425
 255 134 426 0 0 0 0 0 0 +431 432 136 431 1 2 2 2 5 FFF1 433 434 435 135 432 2 0
 45 4 433 695019803268157e-49 0 695019803268157e-49 .00119258162509169 127 2 434
 2 2 128 2 435 0 1 17 430 0 436 437 438 72 439 440 207 409 -15 436 885 0 438 178
 0 17 437 0 436 349 430 76 409 441 208 0 -17 438 0 436 430 349 119 442 443 0 439
 -17 439 0 444 445 82 119 430 440 446 0 +16 440 498 0 2e-8 439 447 246 0 0 0 1 1
7 409 0 448 449 450 72 437 441 406 0 +15 448 540 0 65 262 0 17 449 0 448 65 409
 66 82 451 0 452 -17 450 0 448 409 65 76 453 454 0 437 +16 441 496 0 2e-8 409 24
6 405 0 0 0 1 16 246 775 0 2e-8 75 440 441 0 0 0 1 16 405 486 0 2e-8 395 441 312
 0 0 0 1 16 312 812 0 2e-8 84 405 310 0 0 0 1 17 84 0 420 453 455 76 349 312 248
 450 +15 420 555 0 456 411 0 17 453 0 420 456 84 63 450 454 0 457 -17 455 0 420
 84 456 116 95 458 0 349 +17 349 0 436 438 437 116 84 312 254 0 -17 456 0 420 45
5 453 93 457 459 0 0 +17 95 0 460 92 118 93 455 458 0 461 -16 458 972 0 ?455 462
 463 285 0 0 1 16 462 961 0 ?92 464 458 465 466 313 1 16 463 973 0 ?354 458 466
 278 0 0 1 133 285 1032 0 458 283 290 0 +290 61354605032363e-18 -231e-6 -.000447
843670913397 91e-5 -231e-6 -.00037984004902266 361251058320359e-19 .000887490771
304982 17 354 0 149 60 467 110 98 463 0 16 +16 466 963 0 ?101 463 468 465 469 46
2 1 133 278 1034 0 463 276 283 0 +283 613546050323633e-19 -.000447843670913396 2
31e-6 91e-5 -.0003798400490226595 231e-6 3612510583203615e-20 .00088749077130498
2 17 101 0 470 109 98 99 471 466 0 403 +16 468 975 0 ?403 466 472 271 0 0 1 31 2
55 465 1039 0 469 473 270 0 -613546050321745e-19 0 0 1 0 0 0 0 -1 .0005039096680
72047 16 469 965 0 ?104 472 30 465 313 466 1 17 104 0 26 28 27 102 474 469 0 36
 +16 472 978 0 ?36 468 469 270 0 0 1 16 30 977 0 ?29 469 475 476 0 0 1 16 313 95
9 0 ?89 310 309 465 462 469 1 17 89 0 477 121 86 87 478 313 0 445 +16 309 969 0
 ?445 313 464 298 0 0 1 17 445 0 444 68 439 87 121 309 0 479 +16 464 971 0 ?480
 309 462 292 0 0 1 17 480 0 324 45 333 90 115 464 0 481 +133 292 1030 0 464 290
 297 0 +297 91e-5 -.0003798400490226595 -231e-6 613546050323631e-19 -.0004478436
709133955 -231e-6 200668401227906e-21 .000851566333874173 15 324 424 0 333 321 0
 17 45 0 324 58 480 41 481 482 0 371 +17 333 0 324 480 58 113 483 484 330 0 +17
 115 0 460 118 92 113 480 464 0 485 -17 481 0 152 461 486 90 45 482 0 0 -15 152
 954 0 461 12 0 17 461 0 152 457 481 93 92 462 0 456 -17 486 0 152 481 487 41 40
 488 0 0 -16 482 918 0 ?45 489 490 491 489 489 1 16 489 169 0 ?492 38 482 491 48
2 482 1 16 490 165 0 ?48 482 493 494 0 0 1 31 491 171 0 489 494 495 0 +.0021 420
0143563756405e-35 -231e-6 -328940476684542e-30 -181824396699412e-30 1 1 0 328940
476684542e-30 .002087256333084175 31 494 167 0 490 496 491 0 +.00210118948688328
 2385741998872105e-21 0 -.446197753347436 -.894934391398443 0 .894934391398443 -
.446197753347436 0 .00209999830794124 31 495 175 0 497 491 498 0 +.0021 21000717
8187822e-34 231e-6 641042621852383e-30 -909121983497061e-31 -1 -1 0 -64104262185
2383e-30 .002087256333084175 16 497 173 0 ?467 488 38 495 38 38 1 31 498 178 0 4
88 495 499 0 +.00210118948688328 -238574199887259e-20 0 -.4461977533474355 .8949
34391398443 0 -.894934391398443 -.4461977533474355 0 .00209999830794124 16 488 1
76 0 ?40 500 497 498 0 0 1 31 499 455 0 500 498 427 0 +.00210118948688328 -83297
736683566e-34 23857419988722e-19 -.446197753347436 31246467270566e-28 -.89493439
1398443 -.894934391398443 0 .446197753347436 .00209999830794124 16 500 453 0 ?71
 22 488 499 0 0 1 31 427 467 0 22 499 424 0 +.00210118948688328 832977366835796e
-35 -238574199887259e-20 -.4461977533474355 -31246467270566e-28 .894934391398443
 .894934391398443 0 .4461977533474355 .00209999830794124 16 22 465 0 ?65 9 500 4
27 0 0 1 17 65 0 448 450 449 63 452 22 0 453 +17 452 0 152 479 457 66 65 22 0 0
 -17 479 0 152 478 452 87 68 501 0 0 -17 457 0 152 452 461 63 456 459 0 0 -16 45
9 508 0 ?456 502 503 504 502 502 1 16 502 791 0 ?62 355 459 504 459 459 1 16 503
 510 0 ?505 459 501 506 501 501 1 31 504 602 0 459 507 508 0 +.0021 -231e-6 -785
531471453985e-33 641042621852383e-30 1 3400569140493425e-30 0 -3400569140493425e
-30 1 .002087256333084175 133 507 605 0 509 510 504 0 +319 .000233233534269022 -
.0002310000000000035 .000933714068878836 91e-5 -231e-6 .000596290812545844 .0002
606152322569325 .001016834316287718 30 508 322 0 1 504 511 512 +0 .00105 -231e-6
 .894934391398443 -.446197753347436 2132505079969635e-31 30 511 320 0 1 508 513
 514 +0 .00105 231e-6 .894934391398443 -.446197753347436 0 141 512 515 512 512 5
08 133 515 268 0 516 202 517 0 +508 .0002332335342690215 .000933714068878837 -23
1e-6 91e-5 .000596290812545845 -231e-6 .0002606152322569325 .001016834316287718
 16 516 188 0 ?348 518 519 515 0 0 1 133 202 269 0 519 18 515 0 +511 .0002332335
34269022 .000933714068878837 231e-6 91e-5 .000596290812545845 231e-6 .0002606152
32256933 .001016834316287718 133 517 267 0 518 515 520 0 +521 .00023323353426902
2 -.000933714068878836 -231e-6 91e-5 -.000596290812545845 -231e-6 .0002606152322
569325 .001016834316287716 16 518 186 0 ?58 522 516 517 0 0 1 133 520 266 0 522
 517 523 0 +513 .0002332335342690215 -.000933714068878836 231e-6 91e-5 -.0005962
90812545844 231e-6 .0002606152322569325 .001016834316287718 30 521 312 0 1 513 5
24 525 +0 -.00105 -231e-6 .894934391398443 .4461977533474355 2132505079969635e-3
1 30 513 316 0 1 511 521 526 +0 -.00105 231e-6 .894934391398443 .446197753347436
 533126269992409e-30 133 524 309 0 527 521 362 0 +362 91e-5 .000596290812545845
 -231e-6 91e-5 .000596290812545845 231e-6 1 0 141 525 517 525 525 521 17 527 0 5
28 39 348 54 335 529 524 530 +137 362 308 0 1 524 357 531 -172 532 0 ?141 531 52
4 531 531 362 134 532 0 0 0 0 0 0 +533 534 136 533 1 2 2 2 5 FFF1 535 536 537 13
5 534 2 0 45 4 535 0 0 0 -462e-6 127 2 536 2 2 128 2 537 0 1 15 528 238 0 48 179
 0 17 39 0 528 48 527 25 35 519 0 538 -17 348 0 528 527 48 50 345 516 0 335 +17
 335 0 350 346 530 50 527 529 185 0 -16 529 196 0 2e-8 527 519 484 0 0 0 1 17 53
0 0 350 335 351 54 361 539 198 0 -15 350 892 0 351 540 0 17 351 0 350 530 346 12
5 541 475 0 361 -17 361 0 34 36 35 125 530 539 357 0 +16 539 190 0 2e-8 361 373
 355 0 0 0 1 133 198 271 0 530 196 18 0 +18 91e-5 .00037984004902266 231e-6 91e-
5 .000596290812545845 231e-6 .18149765095244 0 16 373 192 0 2e-8 363 347 539 0 0
 0 1 16 355 865 0 2e-8 60 539 502 0 0 0 1 16 347 845 0 2e-8 52 484 373 0 0 0 1 1
6 484 194 0 2e-8 333 529 347 0 0 0 1 15 34 232 0 361 148 0 17 36 0 34 32 361 102
 28 472 0 37 +17 35 0 34 361 32 54 39 519 0 527 +16 519 189 0 ?35 516 529 202 0
 0 1 17 28 0 26 24 104 125 36 472 0 29 -17 37 0 152 474 538 102 32 38 0 0 -17 47
4 0 152 542 37 105 104 469 0 505 -17 538 0 152 37 543 25 48 490 0 0 -16 38 926 0
 ?32 497 489 495 497 497 1 17 543 0 152 538 478 46 492 489 0 0 -17 48 0 528 348
 39 46 538 490 0 345 +17 345 0 344 492 52 46 348 516 0 543 -15 344 235 0 492 176
 0 17 492 0 344 311 345 80 543 489 0 0 +17 311 0 344 52 492 122 86 310 0 346 +17
 86 0 477 89 124 80 311 310 0 478 -15 477 1003 0 89 141 0 17 124 0 477 86 121 12
2 544 545 0 541 -17 478 0 152 543 479 80 89 313 0 492 -17 121 0 477 124 89 119 4
45 309 0 544 -17 544 0 133 442 541 119 124 545 0 438 +16 545 968 0 ?544 475 443
 546 0 0 1 17 541 0 133 544 29 122 351 475 0 311 +17 29 0 133 541 31 125 24 30 0
 351 +16 475 966 0 ?541 30 545 547 0 0 1 133 547 1047 0 475 548 546 0 +548 91e-5
 .0003798400490226595 231e-6 91e-5 .0003798400490226595 -231e-6 1.02440519337026
2 2.11718746021953 31 548 1048 0 1 476 547 549 +91e-5 0 0 -1 0 0 0 0 1 .00044456
6601131412 133 546 1046 0 545 547 550 0 +548 91e-5 .0003798400490226595 -231e-6
 91e-5 231e-6 -.0003798400490226585 2.11718746021953 2.595201520165155 133 550 1
045 0 443 546 551 0 +548 91e-5 231e-6 -.0003798400490226585 91e-5 -231e-6 -.0003
7984004902266 2.595201520165155 3.687983787014425 16 443 960 0 ?442 545 552 550
 0 0 1 133 551 1044 0 552 550 553 0 +548 91e-5 -231e-6 -.00037984004902266 91e-5
 -.0003798400490226595 -231e-6 3.687983787014425 4.165997846960055 16 552 970 0
 ?485 443 554 551 0 0 1 133 553 1043 0 554 551 555 0 +548 91e-5 -.00037984004902
26595 -231e-6 91e-5 -.0003798400490226595 231e-6 4.165997846960055 5.25878011380
932 16 554 962 0 ?556 552 557 553 0 0 1 133 555 1042 0 557 553 473 0 +548 91e-5
 -.0003798400490226595 231e-6 91e-5 -231e-6 .0003798400490226585 5.2587801138093
2 5.73679417375495 16 557 974 0 ?558 554 559 555 0 0 1 133 473 1041 0 559 555 46
5 0 +548 91e-5 -231e-6 .0003798400490226585 91e-5 231e-6 .0003798400490226605 5.
73679417375495 6.82957644060422 16 559 964 0 ?31 557 0 473 0 0 1 17 31 0 133 29
 558 10 245 559 0 21 +17 558 0 133 31 556 107 112 557 0 245 +17 245 0 244 404 24
3 107 31 559 0 395 -17 21 0 560 75 505 10 27 9 0 243 +15 560 558 0 505 158 0 17
 75 0 560 561 21 73 243 246 228 562 +17 505 0 560 21 561 105 542 503 0 0 +17 27
 0 26 104 24 105 21 9 0 474 -15 26 1015 0 24 132 0 17 561 0 560 505 75 69 562 56
3 0 542 -17 542 0 152 564 474 69 505 503 0 0 -17 564 0 152 565 542 56 71 500 0 0
 -17 565 0 152 471 564 99 62 502 0 0 -17 71 0 387 562 566 69 564 500 0 561 +15 3
87 543 0 71 384 0 17 562 0 387 393 71 73 561 563 0 227 +17 566 0 387 71 393 56 7
9 509 0 564 -17 393 0 387 566 562 77 227 447 389 404 +17 79 0 402 395 62 77 566
 509 0 393 +16 509 475 0 ?79 563 447 507 0 0 1 16 563 491 0 ?562 451 509 567 0 0
 1 16 447 484 0 2e-8 393 509 440 0 0 0 1 16 451 474 0 ?82 454 563 568 0 0 1 133
 567 627 0 563 237 568 0 +314 .0002332335342690215 .0002309999999999965 .0009337
14068878838 91e-5 .0002309999999999975 .000596290812545845 .0002606152322569325
 .001016834316287718 137 237 658 0 1 446 567 569 -250 570 0 ?133 568 619 0 451 5
67 506 0 +394 .000233233534269022 .000231000000000003 -.000933714068878836 91e-5
 231e-6 -.000596290812545844 .0002606152322569325 .001016834316287716 31 506 616
 0 501 568 510 0 +.0021 231e-6 848533624910325e-33 -328940476684542e-30 -1 -3673
305735542545e-30 0 3673305735542545e-30 -1 .002087256333084175 30 394 668 0 1 57
1 389 572 +0 .0002310000000000035 -.00105 .894934391398443 -1771141637243265e-30
 .4461977533474355 30 571 672 0 1 319 394 573 +0 -.000230999999999996 -.00105 .8
94934391398443 -2091017399238715e-30 .446197753347436 141 572 568 572 572 394 30
 319 676 0 1 314 571 574 +0 -.000231000000000004 .00105 .894934391398443 1557891
129246305e-30 -.446197753347436 141 573 510 573 573 571 133 510 613 0 454 506 50
7 0 +571 .0002332335342690215 -.0002309999999999965 -.000933714068878837 91e-5 -
231e-6 -.000596290812545845 .0002606152322569325 .001016834316287718 16 454 489
 0 ?450 501 451 510 0 0 1 16 501 827 0 ?68 503 454 506 503 503 1 17 68 0 444 82
 445 66 479 501 0 449 +15 444 561 0 439 256 0 17 82 0 444 439 68 72 449 451 0 43
0 +14 256 842 575 ?411 178 444 4 250 +158 158 411 178 20 81 1 575 1241 135 256 5
76 0 418 577 578 14 178 888 577 ?256 540 436 4 168 -171 540 256 540 20 14 158 78
8 579 ?154 419 560 4 250 +256 256 154 419 20 81 1 579 1243 135 158 580 0 577 581
 582 14 419 806 581 ?158 411 402 4 257 +411 411 158 411 20 81 1 581 1244 135 419
 583 0 579 584 585 15 402 552 0 395 419 0 80 255 1 135 586 587 9000 1 1 1 1 1 1
 1 1 0 FFFFTFTFFFFFFF1 81 1 583 1152 588 419 0 581 589 580 590 81 1 584 1245 135
 262 591 0 581 592 593 82 255 1 585 -1250688915 14 262 538 584 ?384 179 448 4 26
0 +0 0 384 179 20 81 1 591 1161 588 262 0 584 594 595 596 81 1 592 1246 135 179
 594 0 584 597 598 82 1 593 -1289551764 14 179 236 592 ?262 376 528 4 172 +0 0 2
62 376 20 81 1 594 1160 588 179 0 592 599 591 600 81 1 597 1247 135 14 601 0 592
 602 603 82 1 598 -1440153493 14 14 147 597 ?376 166 604 4 5 -0 0 376 166 20 81
 1 601 1158 588 14 0 597 605 599 606 81 1 602 1248 135 540 607 0 597 608 609 82
 1 603 -1541210009 14 540 894 602 ?178 175 350 4 168 -178 175 178 175 20 81 1 60
7 1148 588 540 0 602 610 611 612 81 1 608 1249 135 175 610 0 602 613 614 82 1 60
9 -1243348883 14 175 900 608 ?540 171 244 4 168 -540 171 540 171 20 81 1 610 114
7 588 175 0 608 615 607 616 81 1 613 1250 135 176 617 0 608 618 619 82 1 614 -12
42824595 14 176 915 613 ?171 321 344 4 180 +321 321 171 321 20 81 1 617 1145 588
 176 0 613 620 615 621 81 1 618 1251 135 148 622 0 613 623 624 82 1 619 -1241448
339 14 148 931 618 ?321 143 34 4 150 +143 143 321 143 20 81 1 622 1143 588 148 0
 618 625 620 626 81 1 623 1252 135 141 627 0 618 628 629 82 1 624 -1239875475 14
 141 1001 623 ?630 384 477 4 140 +630 132 630 384 20 81 1 627 1163 588 141 0 623
 595 631 632 81 1 628 1253 135 630 631 0 623 633 634 82 1 629 -1253572499 14 630
 1004 628 ?139 141 460 4 140 +139 141 139 141 20 81 1 631 1164 588 630 0 628 627
 635 636 81 1 633 1254 135 139 635 0 628 0 637 82 1 634 -1254883219 14 139 1007
 633 ?132 630 470 4 140 +132 630 132 630 20 81 1 635 1165 588 139 0 633 631 638
 639 82 1 637 -1256193939 80 1 588 0 640 8001 0 0 0 0 3 5 0 0 0 FFFFTFTFFFFFFF2
 81 1 638 1166 588 132 0 137 635 136 641 83 255 3 639 .776470588235294 .75686274
5098039 .737254901960784 81 1 137 1229 135 132 638 0 131 142 642 81 1 136 1167 5
88 130 0 131 638 0 643 83 3 641 .776470588235294 .756862745098039 .7372549019607
84 83 3 643 .776470588235294 .756862745098039 .737254901960784 82 1 642 -1265106
835 79 255 15 640 SDL/TYSA_COLOUR15 470 1009 0 101 139 0 83 3 636 .7764705882352
94 .756862745098039 .737254901960784 15 460 1006 0 118 630 0 17 118 0 460 95 115
 116 485 552 0 442 -17 485 0 133 556 442 113 118 552 0 644 +17 442 0 133 485 544
 116 438 443 0 455 +17 556 0 133 558 485 110 644 554 0 354 +17 644 0 177 483 16
 113 556 554 0 333 -15 177 904 0 644 171 0 17 483 0 177 372 644 49 333 484 186 3
63 -17 16 0 177 644 372 110 60 355 6 0 -17 372 0 177 16 483 53 363 373 193 0 -13
3 193 274 0 372 191 196 0 +196 91e-5 -.000596290812545845 -231e-6 91e-5 -.000596
290812545844 231e-6 1 0 133 186 278 0 483 182 191 0 +191 91e-5 -.000379840049022
66 -231e-6 91e-5 -.000596290812545845 -231e-6 .1814976509524395 0 81 1 595 1162
 588 384 0 386 591 627 645 83 3 632 .776470588235294 .756862745098039 .737254901
960784 81 1 386 1239 135 384 595 0 383 418 646 83 3 645 .776470588235294 .756862
745098039 .737254901960784 81 1 383 1238 135 376 599 0 323 386 647 81 1 418 1240
 135 411 589 0 386 575 648 82 1 646 -1289944980 81 1 589 1151 588 411 0 418 576
 583 649 82 1 648 -1249116051 81 1 576 1150 588 256 0 575 611 589 650 83 3 649 .
776470588235294 .756862745098039 .737254901960784 81 1 611 1149 588 178 0 577 60
7 576 651 83 3 650 .776470588235294 .756862745098039 .737254901960784 81 1 577 1
242 135 178 611 0 575 579 652 83 3 651 .776470588235294 .756862745098039 .737254
901960784 82 1 652 -1243873171 81 1 599 1159 588 376 0 383 601 594 653 81 1 323
 1237 135 321 620 0 174 383 654 82 1 647 -1438187413 81 1 620 1144 588 321 0 323
 622 617 655 81 1 174 1236 135 171 615 0 169 323 656 82 1 654 -1240661907 81 1 6
15 1146 588 171 0 174 617 610 657 81 1 169 1235 135 166 605 0 165 174 658 82 1 6
56 -1242300307 81 1 605 1157 588 166 0 169 659 601 660 81 1 165 1234 135 162 659
 0 161 169 661 82 1 658 -1550057370 81 1 659 1156 588 162 0 165 662 605 663 81 1
 161 1233 135 157 662 0 156 165 664 82 1 661 -1549467545 81 1 662 1155 588 157 0
 161 665 659 666 81 1 156 1232 135 154 665 0 146 161 667 82 1 664 -1548877721 81
 1 665 1154 588 154 0 156 580 662 668 81 1 146 1231 135 143 625 0 142 156 669 82
 1 667 -1548287898 81 1 625 1142 588 143 0 146 145 622 670 82 1 669 -1239089043
 81 1 145 1141 588 12 0 142 0 625 671 83 3 670 .776470588235294 .756862745098039
 .737254901960784 83 3 671 .776470588235294 .756862745098039 .737254901960784 81
 1 580 1153 588 158 0 579 583 665 672 83 3 668 .776470588235294 .756862745098039
 .737254901960784 83 3 672 .776470588235294 .756862745098039 .737254901960784 83
 3 666 .776470588235294 .756862745098039 .737254901960784 83 3 663 .776470588235
294 .756862745098039 .737254901960784 83 3 660 .776470588235294 .756862745098039
 .737254901960784 83 3 657 .776470588235294 .756862745098039 .737254901960784 83
 3 655 .776470588235294 .756862745098039 .737254901960784 83 3 653 .776470588235
294 .756862745098039 .737254901960784 83 3 626 .776470588235294 .756862745098039
 .737254901960784 83 3 621 .776470588235294 .756862745098039 .737254901960784 83
 3 616 .776470588235294 .756862745098039 .737254901960784 15 244 898 0 245 175 0
 83 3 612 .776470588235294 .756862745098039 .737254901960784 83 3 606 .776470588
235294 .756862745098039 .737254901960784 15 604 148 0 673 14 674 17 673 0 604 67
3 673 0 675 493 0 0 -15 674 149 0 676 14 0 17 676 0 674 676 676 0 677 678 0 0 -1
7 677 0 167 677 677 0 676 678 0 0 +16 678 129 0 ?677 493 679 680 0 0 1 16 493 13
5 0 ?675 490 678 496 0 0 1 16 679 59 0 ?681 678 682 683 0 0 1 31 680 132 0 678 6
83 496 0 +.0013 0 0 -1 0 0 0 0 1 .0011 31 683 86 0 679 684 680 0 +.0133 0 0 -1 0
 0 0 0 1 .001 31 496 138 0 493 680 494 0 -.0014 0 0 -1 0 0 0 0 1 .001 31 684 84
 0 682 523 683 0 +.0013 0 0 -1 0 0 0 0 1 .00175 16 682 49 0 ?685 679 686 684 0 0
 1 31 523 83 0 686 520 684 0 +.000443908039957306 0 0 -1 0 0 0 0 1 .001291262723
028102 16 686 47 0 ?151 682 522 523 0 0 1 17 151 0 144 151 151 0 687 686 0 0 +16
 522 187 0 ?356 686 518 520 0 0 1 17 356 0 370 363 40 53 353 522 0 372 +15 370 2
29 0 40 376 0 17 40 0 370 356 371 33 486 488 0 353 +17 353 0 149 467 60 33 356 5
22 0 487 -15 149 440 0 467 143 0 17 467 0 149 354 353 96 487 497 0 0 +17 487 0 1
52 486 471 33 467 497 0 0 -17 471 0 152 487 565 96 101 466 0 467 -17 371 0 370 4
0 363 41 58 518 0 486 -17 58 0 324 333 45 49 371 518 0 483 +17 687 0 170 687 687
 0 151 686 0 0 -15 170 107 0 687 166 688 15 688 51 0 685 166 0 17 685 0 688 685
 685 0 689 682 0 0 +17 689 0 690 689 689 0 685 682 0 0 -15 690 108 0 689 162 0 1
7 681 0 691 681 681 0 692 679 0 0 +15 691 61 0 681 157 0 17 692 0 159 692 692 0
 681 679 0 0 -15 159 110 0 692 154 0 17 675 0 163 675 675 0 673 493 0 0 +15 163
 136 0 675 157 691 15 167 130 0 677 162 690 83 3 600 .776470588235294 .756862745
098039 .737254901960784 83 3 596 .776470588235294 .756862745098039 .737254901960
784 83 3 590 .776470588235294 .756862745098039 .737254901960784 79 14 587 SWEntU
nchanged82 1 582 -1260453779 82 1 578 -1247543187 141 574 507 574 574 319 133 44
6 659 0 439 410 237 0 +424 91e-5 231e-6 -.000596290812545844 91e-5 231e-6 -.0003
7984004902266 1 .818502349047561 141 569 228 569 569 237 134 570 0 0 0 0 0 0 +69
3 694 136 693 1 2 2 2 5 FFF1 695 696 697 135 694 2 0 45 4 695 -713275958879596e-
49 0 -713275958879596e-49 -.00119258162509169 127 2 696 2 2 128 2 697 0 1 137 41
0 660 0 1 406 446 698 -260 699 0 ?141 698 406 698 698 410 134 699 0 0 0 0 0 0 +7
00 701 136 700 1 2 2 2 5 FFF1 702 703 704 135 701 2 0 45 4 702 -.001016834316287
718 216840434497101e-33 -.001016834316287718 462e-6 127 2 703 2 2 128 2 704 0 1
 17 62 0 402 79 403 56 565 502 0 566 +17 403 0 402 62 395 99 109 468 0 565 +17 1
09 0 470 112 101 107 403 468 0 558 -17 112 0 470 98 109 110 558 557 0 556 -17 98
 0 470 101 112 96 354 463 0 471 -17 227 0 244 243 404 73 393 447 221 0 -17 404 0
 244 227 245 77 395 405 217 0 -133 217 738 0 404 213 220 0 +220 91e-5 -231e-6 .0
0037984004902266 91e-5 -231e-6 .000596290812545844 .1814976509524395 0 133 476 1
049 0 30 0 548 0 +548 91e-5 231e-6 .0003798400490226605 91e-5 .00037984004902265
95 231e-6 .54639113342463 1.024405193370262 141 549 476 705 706 548 141 705 473
 707 549 548 141 706 547 549 708 548 141 708 546 706 709 548 141 709 550 708 710
 548 141 710 551 709 711 548 141 711 553 710 707 548 141 707 555 711 705 548 141
 526 520 526 526 513 141 514 202 514 514 511 17 92 0 460 115 95 90 461 462 0 480
 +133 270 1038 0 472 465 268 0 +268 91e-5 .0003798400490226595 231e-6 6135460503
2363e-18 .000447843670913396 231e-6 2006684012304195e-22 .000851566333874174 133
 271 1036 0 468 268 276 0 +276 91e-5 -231e-6 .0003798400490226585 61354605032363
1e-19 -231e-6 .000447843670913395 200668401227906e-21 .000851566333874174 133 20
8 733 0 437 205 211 0 +211 91e-5 231e-6 -.000596290812545844 91e-5 -231e-6 -.000
596290812545845 1 0 141 428 446 428 428 424 134 429 0 0 0 0 0 0 +712 713 136 712
 1 2 2 2 5 FFF1 714 715 716 135 713 2 0 45 4 714 -713275958879596e-49 0 -7132759
58879596e-49 -.00119258162509169 127 2 715 2 2 128 2 716 0 1 141 326 352 717 718
 150 141 717 283 718 326 150 141 718 268 326 717 150 141 320 567 320 320 314 141
 299 292 299 299 297 40 2 300 0 1 2 1563137886356015e-21 .00324535683422516 ??91
02e-7 -.0003798236803927335 -231e-6 253406192590774e-19 -.000450675416027601 -23
1e-6 41 1 301 L?9102e-7 -.0003798236803927335 -231e-6 41 1 302 L?253406192590774
e-19 -.000450675416027601 -231e-6 141 293 285 293 293 290 40 2 294 0 1 2 1563137
886549845e-21 .003245356834215335 ??253406192590715e-19 -231e-6 -.00045067541602
7531 .000910200000000011 -231e-6 -.0003798236803928635 41 1 295 L?25340619259071
5e-19 -231e-6 -.000450675416027531 41 1 296 L?.000910200000000011 -231e-6 -.0003
798236803928635 141 286 278 286 286 283 40 2 287 0 1 2 1563137886549865e-21 .003
245356834215335 ??253406192590715e-19 -.000450675416027531 231e-6 .0009102000000
0001 -.0003798236803928625 231e-6 41 1 288 L?253406192590715e-19 -.0004506754160
27531 231e-6 41 1 289 L?.00091020000000001 -.0003798236803928625 231e-6 141 279
 271 279 279 276 40 2 280 0 1 2 1563137886356025e-21 .00324535683422533 ??9102e-
7 -231e-6 .000379823680392732 253406192590775e-19 -231e-6 .0004506754160276 41 1
 281 L?9102e-7 -231e-6 .000379823680392732 41 1 282 L?253406192590775e-19 -231e-
6 .0004506754160276 141 272 270 272 272 268 40 2 273 0 1 2 1563137886356025e-21
 .00324535683422533 ??9102e-7 .000379823680392733 231e-6 253406192590771e-19 .00
0450675416027601 231e-6 41 1 274 L?9102e-7 .000379823680392733 231e-6 41 1 275 L
?253406192590771e-19 .000450675416027601 231e-6 141 263 410 263 263 260 141 259
 237 719 720 250 141 719 303 721 259 250 141 720 424 259 721 250 141 721 247 720
 719 250 141 222 217 222 222 220 134 223 0 0 0 0 0 0 +722 723 136 722 1 2 2 2 5
 FFF1 724 725 726 135 723 2 0 45 4 724 -.000365290812545844 -.000827290812545847
 .000827290812545845 -.000827290812545843 127 2 725 2 2 128 2 726 0 1 141 218 25
4 218 218 213 134 219 0 0 0 0 0 0 +727 728 136 727 1 2 2 2 5 FFF1 729 730 731 13
5 728 2 0 45 4 729 -.000365290812545844 -.000827290812545847 .000827290812545845
 -.000827290812545843 127 2 730 2 2 128 2 731 0 1 141 214 208 214 214 211 134 21
5 0 0 0 0 0 0 +732 733 136 732 1 2 2 2 5 FFF1 734 735 736 135 733 2 0 45 4 734 .
000827290812545845 -.000827290812545843 .000827290812545844 -.000365290812545843
 127 2 735 2 2 128 2 736 0 1 141 209 207 209 209 205 134 210 0 0 0 0 0 0 +737 73
8 136 737 1 2 2 2 5 FFF1 739 740 741 135 738 2 0 45 4 739 .000827290812545844 -.
000365290812545843 -.0003652908125458455 -.000365290812545847 127 2 740 2 2 128
 2 741 0 1 141 203 198 742 742 18 134 204 0 0 0 0 0 0 +743 744 136 743 1 2 2 2 5
 FFF1 745 746 747 135 744 2 0 45 4 745 0 0 -1084202172485504e-34 -.0011925816250
9169 127 2 746 2 2 128 2 747 0 1 141 742 6 203 203 18 141 199 193 199 199 196 13
4 200 0 0 0 0 0 0 +748 749 136 748 1 2 2 2 5 FFF1 750 751 752 135 749 2 0 45 4 7
50 -1084202172485504e-34 -.00119258162509169 462e-6 -.00119258162509169 127 2 75
1 2 2 128 2 752 0 1 141 194 186 753 753 191 134 195 0 0 0 0 0 0 +754 755 136 754
 1 2 2 2 5 FFF1 756 757 758 135 755 2 0 45 4 756 462e-6 -.00119258162509169 462e
-6 0 127 2 757 2 2 128 2 758 0 1 141 753 343 194 194 191 141 187 185 187 187 182
 134 188 0 0 0 0 0 0 +759 760 136 759 1 2 2 2 5 FFF1 761 762 763 135 760 2 0 45
 4 761 462e-6 0 0 0 127 2 762 2 2 128 2 763 0 1 141 181 362 181 181 172 82 1 147
 -1237516179 82 1 138 -1265696659 19 13 40 0 1 0 8 4 S0 74 4 CI16 index_map_offs
et0 0 1 dCCZ20 11 2 0 0 633 136 0 0 0 0 0 0 0 0 0 0 0 0 0 0 0 0 0 0 1 0 
